<svg width="208" height="210" viewBox="0 0 208 210" fill="none" xmlns="http://www.w3.org/2000/svg">
<path d="M0 104C0 161.438 46.5624 208 104 208C161.438 208 208 161.438 208 104C208 46.5624 161.438 0 104 0C46.5624 0 0 46.5624 0 104ZM187.786 104C187.786 150.274 150.274 187.786 104 187.786C57.7264 187.786 20.2142 150.274 20.2142 104C20.2142 57.7264 57.7264 20.2142 104 20.2142C150.274 20.2142 187.786 57.7264 187.786 104Z" fill="#321D5D"/>
<path d="M198.279 134.348C201.215 135.231 204.326 133.569 205.051 130.59C209.204 113.525 208.967 95.6822 204.362 78.733C203.558 75.7745 200.404 74.1959 197.493 75.1564C194.581 76.1169 193.017 79.2525 193.802 82.2161C197.716 96.994 197.922 112.512 194.402 127.389C193.696 130.372 195.343 133.465 198.279 134.348Z" fill="url(#paint0_linear_385_2197)"/>
<path d="M5.68953 107.861C2.59154 107.983 -0.0343933 105.568 0.0112305 102.468C0.302948 82.645 6.25781 63.2739 17.23 46.6679C28.2022 30.0619 43.6857 16.9868 61.8064 8.94365C64.6402 7.68583 67.8909 9.15448 68.994 12.052C70.0972 14.9495 68.634 18.1769 65.8085 19.4532C49.882 26.6473 36.2733 38.2132 26.5974 52.8573C16.9215 67.5014 11.6197 84.5559 11.2484 102.028C11.1825 105.128 8.78754 107.739 5.68953 107.861Z" fill="url(#paint1_linear_385_2197)"/>
<path d="M196.182 138.565C199.052 139.641 200.52 142.848 199.293 145.658C190.008 166.897 173.865 184.48 153.371 195.534C132.876 206.588 109.316 210.42 86.4681 206.512C83.4462 205.995 81.5726 203.006 82.2499 200.016C82.9272 197.026 85.8989 195.169 88.924 195.667C109.15 198.994 129.969 195.543 148.1 185.763C166.232 175.983 180.551 160.482 188.881 141.753C190.127 138.952 193.311 137.489 196.182 138.565Z" fill="url(#paint2_linear_385_2197)"/>
<path d="M75.7673 198.314C74.8881 201.251 71.7883 202.933 68.9023 201.899C51.3356 195.601 35.7518 184.678 23.8227 170.239C11.8936 155.8 4.10739 138.435 1.2374 119.995C0.7659 116.966 3.00301 114.239 6.05312 113.93C9.10323 113.621 11.8096 115.847 12.3004 118.873C14.9364 135.126 21.8523 150.423 32.3817 163.168C42.9111 175.913 56.628 185.591 72.0918 191.246C74.9711 192.299 76.6465 195.377 75.7673 198.314Z" fill="url(#paint3_linear_385_2197)"/>
<path d="M196.526 70.3688C199.408 69.3215 200.908 66.1293 199.709 63.308C189.825 40.0588 171.78 21.1353 148.875 10.18C125.971 -0.775375 99.9133 -2.94734 75.6101 3.9498C72.6608 4.7868 71.1175 7.95847 72.1105 10.8589C73.1036 13.7594 76.257 15.2883 79.2115 14.4702C100.757 8.50392 123.805 10.4952 144.085 20.1953C164.365 29.8955 180.381 46.589 189.258 67.1071C190.476 69.9207 193.645 71.4161 196.526 70.3688Z" fill="url(#paint4_linear_385_2197)"/>
<defs>
<linearGradient id="paint0_linear_385_2197" x1="200.2" y1="131.48" x2="7.27999" y2="143.44" gradientUnits="userSpaceOnUse">
<stop stop-color="#6D83F6"/>
<stop offset="1" stop-color="#455AC1"/>
</linearGradient>
<linearGradient id="paint1_linear_385_2197" x1="68.12" y1="15.08" x2="6.32559" y2="108.093" gradientUnits="userSpaceOnUse">
<stop stop-color="#8147C3"/>
<stop offset="1" stop-color="#8179F2"/>
</linearGradient>
<linearGradient id="paint2_linear_385_2197" x1="7.8" y1="129.48" x2="200.72" y2="141.44" gradientUnits="userSpaceOnUse">
<stop stop-color="#6D83F6"/>
<stop offset="1" stop-color="#455AC1"/>
</linearGradient>
<linearGradient id="paint3_linear_385_2197" x1="7.8" y1="129.48" x2="200.72" y2="141.44" gradientUnits="userSpaceOnUse">
<stop stop-color="#6D83F6"/>
<stop offset="1" stop-color="#455AC1"/>
</linearGradient>
<linearGradient id="paint4_linear_385_2197" x1="7.8" y1="78.52" x2="200.72" y2="66.56" gradientUnits="userSpaceOnUse">
<stop stop-color="#6D83F6"/>
<stop offset="1" stop-color="#455AC1"/>
</linearGradient>
</defs>
</svg>
