<svg width="25" height="24" viewBox="0 0 25 24" fill="none" xmlns="http://www.w3.org/2000/svg">
<path fill-rule="evenodd" clip-rule="evenodd" d="M8.75 6.75C8.75 4.67893 10.4289 3 12.5 3C14.5711 3 16.25 4.67893 16.25 6.75C16.25 8.82107 14.5711 10.5 12.5 10.5C10.4289 10.5 8.75 8.82107 8.75 6.75Z" fill="#768192"/>
<path fill-rule="evenodd" clip-rule="evenodd" d="M16.25 9.75C16.25 8.09315 17.5931 6.75 19.25 6.75C20.9069 6.75 22.25 8.09315 22.25 9.75C22.25 11.4069 20.9069 12.75 19.25 12.75C17.5931 12.75 16.25 11.4069 16.25 9.75Z" fill="#768192"/>
<path fill-rule="evenodd" clip-rule="evenodd" d="M2.75 9.75C2.75 8.09315 4.09315 6.75 5.75 6.75C7.40685 6.75 8.75 8.09315 8.75 9.75C8.75 11.4069 7.40685 12.75 5.75 12.75C4.09315 12.75 2.75 11.4069 2.75 9.75Z" fill="#768192"/>
<path fill-rule="evenodd" clip-rule="evenodd" d="M6.80986 15.1175C8.00783 13.2444 10.1083 12 12.5 12C14.8919 12 16.9927 13.2447 18.1906 15.1182C19.0187 16.4134 19.377 17.9752 19.209 19.4979C19.1827 19.7359 19.0444 19.947 18.8368 20.0662C16.9694 21.1376 14.8051 21.75 12.5 21.75C10.1949 21.75 8.03059 21.1376 6.16325 20.0662C5.95559 19.947 5.8173 19.7359 5.79103 19.4979C5.62293 17.9749 5.98141 16.4129 6.80986 15.1175Z" fill="#768192"/>
<path d="M5.58228 14.2537C5.57024 14.2722 5.55827 14.2907 5.54638 14.3093C4.58091 15.8189 4.13908 17.6167 4.27471 19.389C3.66667 19.2967 3.0767 19.1481 2.51043 18.9487L2.39547 18.9082C2.18576 18.8343 2.03923 18.6439 2.02159 18.4222L2.01192 18.3007C2.00402 18.2014 2 18.1011 2 18C2 15.9851 3.58905 14.3414 5.58228 14.2537Z" fill="#768192"/>
<path d="M20.7256 19.389C20.8612 17.617 20.4196 15.8196 19.4545 14.3102C19.4424 14.2913 19.4303 14.2725 19.4181 14.2537C21.4111 14.3416 23 15.9853 23 18C23 18.1011 22.996 18.2014 22.9881 18.3007L22.9784 18.4222C22.9608 18.6439 22.8142 18.8343 22.6045 18.9082L22.4896 18.9487C21.9234 19.1481 21.3336 19.2966 20.7256 19.389Z" fill="#768192"/>
</svg>
