<svg width="144" height="50" viewBox="0 0 144 50" fill="none" xmlns="http://www.w3.org/2000/svg">
<rect width="144" height="50" rx="10" fill="url(#paint0_linear_554_292)"/>
<path d="M45.478 21.432C45.0193 21.432 44.6086 21.5227 44.246 21.704C43.894 21.8853 43.5953 22.1467 43.35 22.488C43.1046 22.8187 42.918 23.224 42.79 23.704C42.6726 24.184 42.614 24.7227 42.614 25.32C42.614 26.1307 42.71 26.824 42.902 27.4C43.1046 27.9653 43.4193 28.3973 43.846 28.696C44.2726 28.9947 44.8166 29.144 45.478 29.144C45.9473 29.144 46.4113 29.0907 46.87 28.984C47.3393 28.8773 47.846 28.728 48.39 28.536V30.568C47.8886 30.7707 47.3926 30.92 46.902 31.016C46.4113 31.112 45.862 31.16 45.254 31.16C44.0806 31.16 43.11 30.92 42.342 30.44C41.5846 29.9493 41.0246 29.2667 40.662 28.392C40.2993 27.5067 40.118 26.4773 40.118 25.304C40.118 24.44 40.2353 23.6507 40.47 22.936C40.7046 22.2107 41.046 21.5867 41.494 21.064C41.9526 20.5413 42.5126 20.136 43.174 19.848C43.846 19.56 44.614 19.416 45.478 19.416C46.0433 19.416 46.6086 19.4907 47.174 19.64C47.75 19.7787 48.2993 19.9707 48.822 20.216L48.038 22.184C47.6113 21.9813 47.1793 21.8053 46.742 21.656C46.3153 21.5067 45.894 21.432 45.478 21.432ZM58.6615 26.616C58.6615 27.3413 58.5601 27.9867 58.3575 28.552C58.1655 29.1173 57.8828 29.5973 57.5095 29.992C57.1468 30.376 56.7041 30.6693 56.1815 30.872C55.6588 31.064 55.0668 31.16 54.4055 31.16C53.7975 31.16 53.2321 31.064 52.7095 30.872C52.1975 30.6693 51.7548 30.376 51.3815 29.992C51.0081 29.5973 50.7148 29.1173 50.5015 28.552C50.2988 27.9867 50.1975 27.3413 50.1975 26.616C50.1975 25.6453 50.3681 24.8293 50.7095 24.168C51.0508 23.496 51.5415 22.984 52.1815 22.632C52.8215 22.28 53.5788 22.104 54.4535 22.104C55.2748 22.104 56.0001 22.28 56.6295 22.632C57.2588 22.984 57.7548 23.496 58.1175 24.168C58.4801 24.8293 58.6615 25.6453 58.6615 26.616ZM52.6295 26.616C52.6295 27.192 52.6881 27.6773 52.8055 28.072C52.9335 28.456 53.1308 28.7493 53.3975 28.952C53.6641 29.144 54.0108 29.24 54.4375 29.24C54.8641 29.24 55.2055 29.144 55.4615 28.952C55.7281 28.7493 55.9201 28.456 56.0375 28.072C56.1655 27.6773 56.2295 27.192 56.2295 26.616C56.2295 26.04 56.1655 25.56 56.0375 25.176C55.9201 24.792 55.7281 24.504 55.4615 24.312C55.1948 24.12 54.8481 24.024 54.4215 24.024C53.7921 24.024 53.3335 24.2427 53.0455 24.68C52.7681 25.1067 52.6295 25.752 52.6295 26.616ZM65.6917 22.104C66.6304 22.104 67.3824 22.36 67.9477 22.872C68.513 23.3733 68.7957 24.184 68.7957 25.304V31H66.4117V25.896C66.4117 25.2667 66.2997 24.7973 66.0757 24.488C65.8517 24.168 65.4944 24.008 65.0037 24.008C64.2784 24.008 63.7824 24.2587 63.5157 24.76C63.249 25.2507 63.1157 25.96 63.1157 26.888V31H60.7317V22.264H62.5557L62.8757 23.384H63.0037C63.1957 23.0853 63.4304 22.8453 63.7077 22.664C63.985 22.472 64.2944 22.3333 64.6357 22.248C64.977 22.152 65.329 22.104 65.6917 22.104ZM76.3073 22.104C77.246 22.104 77.998 22.36 78.5633 22.872C79.1287 23.3733 79.4113 24.184 79.4113 25.304V31H77.0273V25.896C77.0273 25.2667 76.9153 24.7973 76.6913 24.488C76.4673 24.168 76.11 24.008 75.6193 24.008C74.894 24.008 74.398 24.2587 74.1313 24.76C73.8647 25.2507 73.7313 25.96 73.7313 26.888V31H71.3473V22.264H73.1713L73.4913 23.384H73.6193C73.8113 23.0853 74.046 22.8453 74.3233 22.664C74.6007 22.472 74.91 22.3333 75.2513 22.248C75.5927 22.152 75.9447 22.104 76.3073 22.104ZM85.563 22.104C86.3736 22.104 87.067 22.2587 87.643 22.568C88.2296 22.8773 88.683 23.3253 89.003 23.912C89.323 24.4987 89.483 25.2187 89.483 26.072V27.224H83.851C83.8723 27.896 84.0696 28.424 84.443 28.808C84.827 29.192 85.355 29.384 86.027 29.384C86.5923 29.384 87.1043 29.3307 87.563 29.224C88.0216 29.1067 88.4963 28.9307 88.987 28.696V30.536C88.5603 30.7493 88.107 30.904 87.627 31C87.1576 31.1067 86.587 31.16 85.915 31.16C85.0403 31.16 84.267 31 83.595 30.68C82.923 30.3493 82.395 29.8533 82.011 29.192C81.627 28.5307 81.435 27.6987 81.435 26.696C81.435 25.672 81.6056 24.824 81.947 24.152C82.299 23.4693 82.7843 22.9573 83.403 22.616C84.0216 22.2747 84.7416 22.104 85.563 22.104ZM85.579 23.8C85.1203 23.8 84.7363 23.9493 84.427 24.248C84.1283 24.5467 83.9523 25.0107 83.899 25.64H87.243C87.243 25.288 87.179 24.9733 87.051 24.696C86.9336 24.4187 86.7523 24.2 86.507 24.04C86.2616 23.88 85.9523 23.8 85.579 23.8ZM95.0681 31.16C94.2041 31.16 93.4681 31.0053 92.8601 30.696C92.2521 30.376 91.7881 29.8853 91.4681 29.224C91.1481 28.5627 90.9881 27.7147 90.9881 26.68C90.9881 25.6133 91.1694 24.744 91.5321 24.072C91.8948 23.4 92.3961 22.904 93.0361 22.584C93.6868 22.264 94.4334 22.104 95.2761 22.104C95.8734 22.104 96.3908 22.1627 96.8281 22.28C97.2761 22.3973 97.6654 22.536 97.9961 22.696L97.2921 24.536C96.9188 24.3867 96.5668 24.264 96.2361 24.168C95.9161 24.072 95.5961 24.024 95.2761 24.024C94.8601 24.024 94.5134 24.1253 94.2361 24.328C93.9588 24.52 93.7508 24.8133 93.6121 25.208C93.4841 25.592 93.4201 26.0773 93.4201 26.664C93.4201 27.24 93.4894 27.72 93.6281 28.104C93.7774 28.4773 93.9908 28.76 94.2681 28.952C94.5454 29.1333 94.8814 29.224 95.2761 29.224C95.7774 29.224 96.2201 29.16 96.6041 29.032C96.9881 28.8933 97.3614 28.7067 97.7241 28.472V30.504C97.3614 30.7387 96.9774 30.904 96.5721 31C96.1774 31.1067 95.6761 31.16 95.0681 31.16ZM103.515 29.256C103.782 29.256 104.038 29.2293 104.283 29.176C104.528 29.1227 104.774 29.0587 105.019 28.984V30.76C104.763 30.8667 104.443 30.9573 104.059 31.032C103.686 31.1173 103.275 31.16 102.827 31.16C102.304 31.16 101.835 31.0747 101.419 30.904C101.014 30.7333 100.688 30.44 100.443 30.024C100.208 29.5973 100.091 29.0107 100.091 28.264V24.056H98.9548V23.048L100.267 22.248L100.955 20.408H102.475V22.264H104.923V24.056H102.475V28.264C102.475 28.5947 102.571 28.8453 102.763 29.016C102.955 29.176 103.206 29.256 103.515 29.256Z" fill="white"/>
<defs>
<linearGradient id="paint0_linear_554_292" x1="-62.5" y1="25" x2="312" y2="25" gradientUnits="userSpaceOnUse">
<stop stop-color="#860CC9"/>
<stop offset="1" stop-color="#4447E2" stop-opacity="0"/>
<stop offset="1" stop-color="#5E44A0"/>
</linearGradient>
</defs>
</svg>
