<svg width="21" height="20" viewBox="0 0 21 20" fill="none" xmlns="http://www.w3.org/2000/svg">
<path d="M16.5583 4.44168C15.4499 3.92502 14.2499 3.55002 12.9999 3.33335C12.989 3.333 12.9781 3.33506 12.968 3.33938C12.9579 3.3437 12.9489 3.35017 12.9416 3.35835C12.7916 3.63335 12.6166 3.99168 12.4999 4.26668C11.1741 4.06668 9.82577 4.06668 8.49994 4.26668C8.38327 3.98335 8.20827 3.63335 8.04994 3.35835C8.0416 3.34168 8.0166 3.33335 7.9916 3.33335C6.7416 3.55002 5.54993 3.92502 4.43327 4.44168C4.42493 4.44168 4.4166 4.45002 4.40827 4.45835C2.1416 7.85002 1.5166 11.15 1.82493 14.4167C1.82493 14.4334 1.83327 14.45 1.84993 14.4584C3.34993 15.5584 4.7916 16.225 6.2166 16.6667C6.2416 16.675 6.2666 16.6667 6.27493 16.65C6.60827 16.1917 6.90827 15.7084 7.1666 15.2C7.18327 15.1667 7.1666 15.1334 7.13327 15.125C6.65827 14.9417 6.20827 14.725 5.7666 14.475C5.73327 14.4584 5.73327 14.4084 5.75827 14.3834C5.84994 14.3167 5.9416 14.2417 6.03327 14.175C6.04993 14.1584 6.07493 14.1584 6.0916 14.1667C8.95827 15.475 12.0499 15.475 14.8833 14.1667C14.8999 14.1584 14.9249 14.1584 14.9416 14.175C15.0333 14.25 15.1249 14.3167 15.2166 14.3917C15.2499 14.4167 15.2499 14.4667 15.2083 14.4833C14.7749 14.7417 14.3166 14.95 13.8416 15.1334C13.8083 15.1417 13.7999 15.1834 13.8083 15.2084C14.0749 15.7167 14.3749 16.2 14.6999 16.6584C14.7249 16.6667 14.7499 16.675 14.7749 16.6667C16.2083 16.225 17.6499 15.5584 19.1499 14.4584C19.1666 14.45 19.1749 14.4334 19.1749 14.4167C19.5416 10.6417 18.5666 7.36668 16.5916 4.45835C16.5833 4.45002 16.5749 4.44168 16.5583 4.44168ZM7.59994 12.425C6.7416 12.425 6.02493 11.6334 6.02493 10.6584C6.02493 9.68335 6.72494 8.89168 7.59994 8.89168C8.48327 8.89168 9.18327 9.69168 9.17493 10.6584C9.17493 11.6334 8.47494 12.425 7.59994 12.425ZM13.4083 12.425C12.5499 12.425 11.8333 11.6334 11.8333 10.6584C11.8333 9.68335 12.5333 8.89168 13.4083 8.89168C14.2916 8.89168 14.9916 9.69168 14.9833 10.6584C14.9833 11.6334 14.2916 12.425 13.4083 12.425Z" fill="#768192"/>
</svg>
