
<svg width="32" height="32" viewBox="0 0 32 32" fill="none" xmlns="http://www.w3.org/2000/svg">
<path d="M26.6398 6.89252C24.0923 4.84252 20.0623 4.49502 19.8898 4.48252C19.6223 4.46002 19.3673 4.61002 19.2573 4.85752C19.2473 4.87252 19.1598 5.07502 19.0623 5.39002C20.7473 5.67502 22.8173 6.24752 24.6898 7.41002C24.9898 7.59502 25.0823 7.99002 24.8973 8.29002C24.7748 8.48752 24.5673 8.59502 24.3523 8.59502C24.2373 8.59502 24.1198 8.56252 24.0148 8.49752C20.7948 6.50002 16.7748 6.40002 15.9998 6.40002C15.2248 6.40002 11.2023 6.50002 7.98479 8.49752C7.68479 8.68502 7.28979 8.59252 7.10479 8.29252C6.91729 7.99002 7.00979 7.59752 7.30978 7.41002C9.18228 6.25002 11.2523 5.67502 12.9373 5.39252C12.8398 5.07502 12.7523 4.87502 12.7448 4.85752C12.6323 4.61002 12.3798 4.45502 12.1098 4.48252C11.9373 4.49502 7.90729 4.84252 5.32479 6.92002C3.97729 8.16752 1.27979 15.4575 1.27979 21.76C1.27979 21.8725 1.30979 21.98 1.36479 22.0775C3.22479 25.3475 8.30228 26.2025 9.45978 26.24C9.46479 26.24 9.47229 26.24 9.47978 26.24C9.68478 26.24 9.87729 26.1425 9.99728 25.9775L11.1673 24.3675C8.00978 23.5525 6.39729 22.1675 6.30479 22.085C6.03979 21.8525 6.01479 21.4475 6.24978 21.1825C6.48229 20.9175 6.88729 20.8925 7.15229 21.125C7.18979 21.16 10.1598 23.68 15.9998 23.68C21.8498 23.68 24.8198 21.15 24.8498 21.125C25.1148 20.895 25.5173 20.9175 25.7523 21.185C25.9848 21.45 25.9598 21.8525 25.6948 22.085C25.6023 22.1675 23.9898 23.5525 20.8323 24.3675L22.0023 25.9775C22.1223 26.1425 22.3148 26.24 22.5198 26.24C22.5273 26.24 22.5348 26.24 22.5398 26.24C23.6973 26.2025 28.7748 25.3475 30.6348 22.0775C30.6898 21.98 30.7198 21.8725 30.7198 21.76C30.7198 15.4575 28.0223 8.16752 26.6398 6.89252ZM11.8398 19.2C10.6023 19.2 9.59978 18.055 9.59978 16.64C9.59978 15.225 10.6023 14.08 11.8398 14.08C13.0773 14.08 14.0798 15.225 14.0798 16.64C14.0798 18.055 13.0773 19.2 11.8398 19.2ZM20.1598 19.2C18.9223 19.2 17.9198 18.055 17.9198 16.64C17.9198 15.225 18.9223 14.08 20.1598 14.08C21.3973 14.08 22.3998 15.225 22.3998 16.64C22.3998 18.055 21.3973 19.2 20.1598 19.2Z" fill="#5462EA"/>
</svg>
