<svg width="24" height="25" viewBox="0 0 24 25" fill="none" xmlns="http://www.w3.org/2000/svg">
<path d="M8.51999 14.346C7.47999 14.346 6.63199 13.401 6.63199 12.244C6.63199 11.088 7.45899 10.144 8.52099 10.144C9.57099 10.144 10.431 11.088 10.41 12.244C10.41 13.401 9.57099 14.346 8.51999 14.346ZM15.494 14.346C14.454 14.346 13.604 13.401 13.604 12.244C13.604 11.088 14.433 10.144 15.494 10.144C16.544 10.144 17.404 11.088 17.384 12.244C17.384 13.401 16.555 14.346 15.494 14.346ZM10.125 4.82301L9.81699 4.26001L9.18299 4.36501C7.74617 4.60458 6.3478 5.03506 5.02499 5.64501L4.79699 5.75101L4.65499 5.96001C2.04199 9.81401 1.32499 13.608 1.67999 17.336L1.71899 17.742L2.04899 17.982C3.58618 19.1099 5.30306 19.9697 7.12699 20.525L7.91699 20.767L9.02999 18.05C10.94 18.522 13.06 18.523 14.969 18.05L16.076 20.768L16.866 20.525C18.6913 19.9712 20.4091 19.1109 21.946 17.981L22.273 17.743L22.313 17.341C22.749 13.021 21.616 9.25701 19.355 5.95601L19.213 5.74901L18.985 5.64501C17.6625 5.03784 16.2658 4.60748 14.831 4.36501L14.213 4.26201L13.899 4.80301C13.806 4.96479 13.7183 5.12954 13.636 5.29701C12.5512 5.18495 11.4578 5.18495 10.373 5.29701C10.2933 5.13746 10.2106 4.97943 10.125 4.82301ZM6.71499 17.11C6.91199 17.224 7.11999 17.336 7.32499 17.438L6.87599 18.534C5.66159 18.0913 4.50941 17.4937 3.44799 16.756C3.22299 13.617 3.86099 10.451 6.01199 7.18601C6.91975 6.78622 7.866 6.4803 8.83599 6.27301C8.89599 6.39801 8.95199 6.52001 8.99799 6.62901L9.27099 7.27201L9.96299 7.17101C11.3191 6.97233 12.6969 6.97233 14.053 7.17101L14.743 7.27101L15.015 6.62901C15.062 6.51701 15.117 6.39501 15.175 6.27301C16.152 6.48301 17.098 6.79201 18.003 7.18801C19.878 10.008 20.824 13.154 20.549 16.755C19.4876 17.494 18.3346 18.0917 17.119 18.533L16.674 17.439C16.88 17.336 17.088 17.224 17.287 17.11C17.777 16.828 18.304 16.476 18.64 16.14L17.36 14.86C17.197 15.024 16.837 15.28 16.383 15.542C15.939 15.798 15.498 16.005 15.216 16.098C13.213 16.761 10.788 16.761 8.78399 16.098C8.50299 16.005 8.06199 15.798 7.61799 15.542C7.16399 15.281 6.80399 15.024 6.63999 14.86L5.35999 16.14C5.69699 16.476 6.22499 16.828 6.71499 17.11Z" fill="#7E768C"/>
</svg>
