<svg xmlns="http://www.w3.org/2000/svg" width="12" height="24" viewBox="0 0 12 24" fill="none">
  <path d="M11.3819 2.14843V5.32108H9.49484C9.24471 5.28911 8.99062 5.31133 8.74983 5.38623C8.50904 5.46112 8.28718 5.58695 8.09931 5.75516L8.10097 5.75349C7.83091 6.13235 7.70343 6.59447 7.74105 7.05821V7.05155V9.32273H11.2645L10.7979 12.8803H7.74605V22H4.06601V12.8795H1V9.32273H4.06601V6.70246C4.02615 6.06959 4.11665 5.43528 4.33191 4.83881C4.54716 4.24235 4.88259 3.69643 5.31741 3.23487L5.31491 3.23737C5.75871 2.81684 6.28332 2.49085 6.8569 2.27917C7.43049 2.06749 8.0411 1.97455 8.65169 2.00596H8.64086C9.58922 1.99032 10.5375 2.04183 11.4786 2.1601L11.3811 2.1501L11.3819 2.14843Z" fill="#BDBDBD"/>
</svg>