<svg width="30" height="29" viewBox="0 0 30 29" fill="none" xmlns="http://www.w3.org/2000/svg">
<g filter="url(#filter0_f_660_377)">
<rect x="1" y="0.5" width="28" height="28" rx="14" fill="url(#paint0_radial_660_377)"/>
<path d="M13.2329 16.4052C10.5904 16.4052 8.33334 16.8134 8.33334 18.4449C8.33334 20.0777 10.576 20.5 13.2329 20.5C15.8754 20.5 18.1324 20.0918 18.1324 18.4602C18.1324 16.8274 15.8898 16.4052 13.2329 16.4052" fill="white"/>
<path d="M13.2329 14.8499C15.0326 14.8499 16.4749 13.4374 16.4749 11.6749C16.4749 9.91243 15.0326 8.5 13.2329 8.5C11.4338 8.5 9.99088 9.91243 9.99088 11.6749C9.99088 13.4374 11.4338 14.8499 13.2329 14.8499" fill="white"/>
<path d="M17.7823 11.7325C17.7823 12.63 17.507 13.4675 17.0243 14.1632C16.9741 14.2347 17.0184 14.3312 17.1058 14.3465C17.2272 14.3663 17.3518 14.3785 17.479 14.381C18.7445 14.4136 19.8801 13.6157 20.1939 12.4141C20.659 10.6312 19.2944 9.03027 17.5559 9.03027C17.3674 9.03027 17.1867 9.04944 17.0106 9.08457C16.9865 9.08968 16.9604 9.10118 16.9473 9.12162C16.9304 9.14782 16.9428 9.18167 16.9597 9.20403C17.4822 9.92143 17.7823 10.7947 17.7823 11.7325" fill="white"/>
<path d="M21.5194 16.6129C21.2878 16.1293 20.7288 15.7977 19.8782 15.6348C19.477 15.539 18.3902 15.4029 17.3798 15.4221C17.3648 15.424 17.3563 15.4342 17.355 15.4406C17.3531 15.4509 17.3576 15.4662 17.3772 15.4771C17.8443 15.7032 19.6492 16.687 19.4222 18.7619C19.4124 18.8526 19.4861 18.9292 19.5781 18.9165C20.0223 18.8545 21.1652 18.6137 21.5194 17.865C21.7158 17.4689 21.7158 17.0089 21.5194 16.6129" fill="white"/>
</g>
<defs>
<filter id="filter0_f_660_377" x="0.521277" y="0.0212766" width="28.9574" height="28.9574" filterUnits="userSpaceOnUse" color-interpolation-filters="sRGB">
<feFlood flood-opacity="0" result="BackgroundImageFix"/>
<feBlend mode="normal" in="SourceGraphic" in2="BackgroundImageFix" result="shape"/>
<feGaussianBlur stdDeviation="0.239362" result="effect1_foregroundBlur_660_377"/>
</filter>
<radialGradient id="paint0_radial_660_377" cx="0" cy="0" r="1" gradientUnits="userSpaceOnUse" gradientTransform="translate(15 14.5) rotate(90) scale(14)">
<stop stop-color="#BA62FF"/>
<stop offset="1" stop-color="#8F00FF"/>
</radialGradient>
</defs>
</svg>
