<svg width="30" height="30" viewBox="0 0 30 30" fill="none" xmlns="http://www.w3.org/2000/svg">
<g filter="url(#filter0_f_1004_514)">
<rect x="1" y="1" width="28" height="28" rx="14" fill="url(#paint0_radial_1004_514)"/>
</g>
<path d="M12.3333 14.3333C13.0406 14.3333 13.7189 14.0524 14.219 13.5523C14.719 13.0522 15 12.3739 15 11.6667C15 10.9594 14.719 10.2811 14.219 9.78105C13.7189 9.28095 13.0406 9 12.3333 9C11.6261 9 10.9478 9.28095 10.4477 9.78105C9.94762 10.2811 9.66667 10.9594 9.66667 11.6667C9.66667 12.3739 9.94762 13.0522 10.4477 13.5523C10.9478 14.0524 11.6261 14.3333 12.3333 14.3333ZM18.3333 14.3333C18.8638 14.3333 19.3725 14.1226 19.7475 13.7475C20.1226 13.3725 20.3333 12.8638 20.3333 12.3333C20.3333 11.8029 20.1226 11.2942 19.7475 10.9191C19.3725 10.544 18.8638 10.3333 18.3333 10.3333C17.8029 10.3333 17.2942 10.544 16.9191 10.9191C16.544 11.2942 16.3333 11.8029 16.3333 12.3333C16.3333 12.8638 16.544 13.3725 16.9191 13.7475C17.2942 14.1226 17.8029 14.3333 18.3333 14.3333ZM9.83333 15.6667C9.43551 15.6667 9.05398 15.8247 8.77267 16.106C8.49137 16.3873 8.33333 16.7688 8.33333 17.1667V17.3333C8.33333 17.3333 8.33333 20.3333 12.3333 20.3333C13.26 20.3333 13.972 20.1727 14.5187 19.9247C14.3954 19.5167 14.3329 19.0928 14.3333 18.6667C14.3333 17.562 14.7467 16.554 15.4267 15.7887C15.2393 15.7079 15.0374 15.6664 14.8333 15.6667H9.83333ZM22.3333 18.6667C22.3333 17.6942 21.947 16.7616 21.2594 16.0739C20.5718 15.3863 19.6391 15 18.6667 15C17.6942 15 16.7616 15.3863 16.0739 16.0739C15.3863 16.7616 15 17.6942 15 18.6667C15 19.6391 15.3863 20.5718 16.0739 21.2594C16.7616 21.947 17.6942 22.3333 18.6667 22.3333C19.6391 22.3333 20.5718 21.947 21.2594 21.2594C21.947 20.5718 22.3333 19.6391 22.3333 18.6667ZM19 19L19.0007 20.6687C19.0007 20.7571 18.9655 20.8419 18.903 20.9044C18.8405 20.9669 18.7557 21.002 18.6673 21.002C18.5789 21.002 18.4941 20.9669 18.4316 20.9044C18.3691 20.8419 18.334 20.7571 18.334 20.6687V19H16.664C16.5756 19 16.4908 18.9649 16.4283 18.9024C16.3658 18.8399 16.3307 18.7551 16.3307 18.6667C16.3307 18.5783 16.3658 18.4935 16.4283 18.431C16.4908 18.3685 16.5756 18.3333 16.664 18.3333H18.3333V16.6667C18.3333 16.5783 18.3685 16.4935 18.431 16.431C18.4935 16.3685 18.5783 16.3333 18.6667 16.3333C18.7551 16.3333 18.8399 16.3685 18.9024 16.431C18.9649 16.4935 19 16.5783 19 16.6667V18.3333H20.6647C20.7531 18.3333 20.8379 18.3685 20.9004 18.431C20.9629 18.4935 20.998 18.5783 20.998 18.6667C20.998 18.7551 20.9629 18.8399 20.9004 18.9024C20.8379 18.9649 20.7531 19 20.6647 19H19Z" fill="white"/>
<defs>
<filter id="filter0_f_1004_514" x="0.521277" y="0.521277" width="28.9574" height="28.9574" filterUnits="userSpaceOnUse" color-interpolation-filters="sRGB">
<feFlood flood-opacity="0" result="BackgroundImageFix"/>
<feBlend mode="normal" in="SourceGraphic" in2="BackgroundImageFix" result="shape"/>
<feGaussianBlur stdDeviation="0.239362" result="effect1_foregroundBlur_1004_514"/>
</filter>
<radialGradient id="paint0_radial_1004_514" cx="0" cy="0" r="1" gradientUnits="userSpaceOnUse" gradientTransform="translate(15 15) rotate(90) scale(14)">
<stop stop-color="#BA62FF"/>
<stop offset="1" stop-color="#8F00FF"/>
</radialGradient>
</defs>
</svg>
