<svg width="30" height="30" viewBox="0 0 30 30" fill="none" xmlns="http://www.w3.org/2000/svg">
<g filter="url(#filter0_f_385_2170)">
<rect x="1" y="1" width="28" height="28" rx="14" fill="url(#paint0_radial_385_2170)"/>
<path d="M15 13.5C18.3137 13.5 21 12.3807 21 11C21 9.61929 18.3137 8.5 15 8.5C11.6863 8.5 9 9.61929 9 11C9 12.3807 11.6863 13.5 15 13.5Z" stroke="white" stroke-miterlimit="10" stroke-linecap="round"/>
<path d="M21 13.6875C21 15.0681 18.3125 16.1875 15 16.1875C11.6875 16.1875 9 15.0681 9 13.6875M21 16.375C21 17.7556 18.3125 18.875 15 18.875C11.6875 18.875 9 17.7556 9 16.375" stroke="white" stroke-miterlimit="10" stroke-linecap="round"/>
<path d="M9 10.9763V19.0238C9 20.3913 11.6875 21.5 15 21.5C18.3125 21.5 21 20.3913 21 19.0238V10.9763" stroke="white" stroke-miterlimit="10" stroke-linecap="round"/>
</g>
<defs>
<filter id="filter0_f_385_2170" x="0.521277" y="0.521277" width="28.9574" height="28.9574" filterUnits="userSpaceOnUse" color-interpolation-filters="sRGB">
<feFlood flood-opacity="0" result="BackgroundImageFix"/>
<feBlend mode="normal" in="SourceGraphic" in2="BackgroundImageFix" result="shape"/>
<feGaussianBlur stdDeviation="0.239362" result="effect1_foregroundBlur_385_2170"/>
</filter>
<radialGradient id="paint0_radial_385_2170" cx="0" cy="0" r="1" gradientUnits="userSpaceOnUse" gradientTransform="translate(15 15) rotate(90) scale(14)">
<stop stop-color="#BA62FF"/>
<stop offset="1" stop-color="#8F00FF"/>
</radialGradient>
</defs>
</svg>
