
<svg width="32" height="32" viewBox="0 0 32 32" fill="none" xmlns="http://www.w3.org/2000/svg">
<g clip-path="url(#clip0_210_5691)">
<path d="M27.9875 16.5097C27.9875 15.5035 27.9059 14.7692 27.7292 14.0078H16.2393V18.5493H22.9836C22.8477 19.6779 22.1134 21.3776 20.4817 22.5197L20.4588 22.6718L24.0917 25.4862L24.3434 25.5113C26.6549 23.3764 27.9875 20.2354 27.9875 16.5097" fill="#4285F4"/>
<path d="M16.2392 28.4758C19.5434 28.4758 22.3173 27.3879 24.3434 25.5115L20.4816 22.5199C19.4482 23.2406 18.0612 23.7437 16.2392 23.7437C13.003 23.7437 10.2563 21.6089 9.27714 18.6582L9.13362 18.6704L5.35604 21.5939L5.30664 21.7312C7.31908 25.729 11.4528 28.4758 16.2392 28.4758Z" fill="#34A853"/>
<path d="M9.27726 18.6582C9.01892 17.8967 8.8694 17.0808 8.8694 16.2378C8.8694 15.3947 9.01892 14.5789 9.26367 13.8174L9.25683 13.6553L5.43194 10.6848L5.3068 10.7443C4.47738 12.4033 4.00146 14.2662 4.00146 16.2378C4.00146 18.2094 4.47738 20.0723 5.3068 21.7312L9.27726 18.6582" fill="#FBBC05"/>
<path d="M16.2391 8.73192C18.5371 8.73192 20.0871 9.72453 20.971 10.554L24.4248 7.18183C22.3036 5.21019 19.5433 4 16.2391 4C11.4527 4 7.31906 6.74669 5.30664 10.7443L9.26351 13.8174C10.2562 10.8668 13.0029 8.73192 16.2391 8.73192" fill="#EB4335"/>
</g>
<defs>
<clipPath id="clip0_210_5691">
<rect width="24" height="24.56" fill="white" transform="translate(4 4)"/>
</clipPath>
</defs>
</svg>
