
<svg width="30" height="30" viewBox="0 0 30 30" fill="none" xmlns="http://www.w3.org/2000/svg">
<g filter="url(#filter0_f_1_2538)">
<rect x="1.14056" y="1" width="28" height="28" rx="14" fill="url(#paint0_radial_1_2538)"/>
<path d="M21.0981 12.02C19.9581 9.74601 17.6755 8.33334 15.1401 8.33334C11.4641 8.33334 8.47345 11.324 8.47345 15C8.47345 18.676 11.4641 21.6667 15.1401 21.6667C17.6755 21.6667 19.9581 20.254 21.0981 17.98C21.1745 17.8277 21.1896 17.6518 21.1404 17.4887C21.0912 17.3255 20.9814 17.1874 20.8335 17.1027L17.1515 15L20.8328 12.898C21.1401 12.722 21.2568 12.3367 21.0981 12.02ZM15.4761 14.4213C15.374 14.4795 15.2891 14.5637 15.23 14.6654C15.1709 14.767 15.1398 14.8825 15.1398 15C15.1398 15.1176 15.1709 15.233 15.23 15.3347C15.2891 15.4363 15.374 15.5205 15.4761 15.5787L19.5914 17.9287C19.1088 18.6688 18.4487 19.2765 17.6713 19.6965C16.8938 20.1165 16.0237 20.3354 15.1401 20.3333C12.1995 20.3333 9.80678 17.9407 9.80678 15C9.80678 12.0593 12.1995 9.66668 15.1401 9.66668C16.0237 9.66459 16.8937 9.88343 17.6711 10.3033C18.4485 10.7231 19.1087 11.3307 19.5914 12.0707L15.4761 14.4213Z" fill="white"/>
<path d="M14.807 13C15.3593 13 15.807 12.5523 15.807 12C15.807 11.4477 15.3593 11 14.807 11C14.2548 11 13.807 11.4477 13.807 12C13.807 12.5523 14.2548 13 14.807 13Z" fill="white"/>
</g>
<defs>
<filter id="filter0_f_1_2538" x="0.661841" y="0.521277" width="28.9574" height="28.9574" filterUnits="userSpaceOnUse" color-interpolation-filters="sRGB">
<feFlood flood-opacity="0" result="BackgroundImageFix"/>
<feBlend mode="normal" in="SourceGraphic" in2="BackgroundImageFix" result="shape"/>
<feGaussianBlur stdDeviation="0.239362" result="effect1_foregroundBlur_1_2538"/>
</filter>
<radialGradient id="paint0_radial_1_2538" cx="0" cy="0" r="1" gradientUnits="userSpaceOnUse" gradientTransform="translate(15.1406 15) rotate(90) scale(14)">
<stop stop-color="#BA62FF"/>
<stop offset="1" stop-color="#8F00FF"/>
</radialGradient>
</defs>
</svg>
