
<svg width="32" height="32" viewBox="0 0 32 32" fill="none" xmlns="http://www.w3.org/2000/svg">
<path d="M21.3341 20.085L26.5524 16.9924C26.829 16.8281 27 16.5234 27 16.1965V10.0112C27 9.68419 26.829 9.37956 26.5524 9.21527L21.3341 6.12261C21.0575 5.95833 20.7141 5.95993 20.439 6.12261L15.2206 9.21527C14.9441 9.37956 14.7731 9.68419 14.7731 10.0112V21.0643L11.1134 23.2319L7.45377 21.0643V16.7276L11.1134 14.5601L13.5268 15.9907V13.0815L11.561 11.9156C11.4258 11.8358 11.2704 11.7928 11.1134 11.7928C10.9564 11.7928 10.8011 11.8358 10.6659 11.9156L5.44756 15.0082C5.17094 15.1725 5 15.4772 5 15.8041V21.9895C5 22.3164 5.17094 22.621 5.44756 22.7853L10.6659 25.878C10.9425 26.0407 11.2844 26.0407 11.561 25.878L16.7793 22.7853C17.056 22.621 17.2268 22.3164 17.2268 21.9895V10.9347L17.2921 10.8964L20.885 8.76708L24.5447 10.9347V15.2714L20.885 17.439L18.4747 16.0114V18.9207L20.4374 20.0835C20.7141 20.2461 21.0575 20.2461 21.3325 20.0835L21.3341 20.085Z" fill="url(#paint0_linear_210_5687)"/>
<defs>
<linearGradient id="paint0_linear_210_5687" x1="4.92851" y1="22.5955" x2="26.3287" y2="10.4932" gradientUnits="userSpaceOnUse">
<stop stop-color="#A726C1"/>
<stop offset="0.88" stop-color="#803BDF"/>
<stop offset="1" stop-color="#7B3FE4"/>
</linearGradient>
</defs>
</svg>
