<svg xmlns="http://www.w3.org/2000/svg" width="24" height="24" viewBox="0 0 24 24" fill="none">
  <path d="M12 15C13.6569 15 15 13.6569 15 12C15 10.3431 13.6569 9 12 9C10.3431 9 9 10.3431 9 12C9 13.6569 10.3431 15 12 15Z" fill="#BDBDBD"/>
  <path d="M21.9603 12.1069C21.1762 10.0786 19.8149 8.3245 18.0447 7.06145C16.2745 5.79839 14.1731 5.08172 12 5C9.82695 5.08172 7.72547 5.79839 5.9553 7.06145C4.18512 8.3245 2.82385 10.0786 2.03972 12.1069C1.98676 12.2533 1.98676 12.4137 2.03972 12.5602C2.82385 14.5885 4.18512 16.3426 5.9553 17.6056C7.72547 18.8687 9.82695 19.5854 12 19.6671C14.1731 19.5854 16.2745 18.8687 18.0447 17.6056C19.8149 16.3426 21.1762 14.5885 21.9603 12.5602C22.0132 12.4137 22.0132 12.2533 21.9603 12.1069ZM12 16.667C11.1429 16.667 10.3051 16.4128 9.59246 15.9367C8.87983 15.4605 8.3244 14.7837 7.99641 13.9919C7.66842 13.2 7.5826 12.3287 7.74981 11.4881C7.91702 10.6475 8.32974 9.87537 8.93578 9.26932C9.54183 8.66328 10.314 8.25056 11.1546 8.08335C11.9952 7.91614 12.8665 8.00196 13.6583 8.32995C14.4502 8.65794 15.127 9.21337 15.6031 9.926C16.0793 10.6386 16.3335 11.4765 16.3335 12.3335C16.3317 13.4823 15.8746 14.5835 15.0623 15.3958C14.25 16.2081 13.1488 16.6652 12 16.667Z" fill="#BDBDBD"/>
</svg>