<svg width="30" height="30" viewBox="0 0 30 30" fill="none" xmlns="http://www.w3.org/2000/svg">
<g filter="url(#filter0_f_385_2166)">
<rect x="1" y="1" width="28" height="28" rx="14" fill="url(#paint0_radial_385_2166)"/>
<path d="M15 15C14.175 15 13.5 14.28 13.5 13.4C13.5 12.52 14.175 11.8 15 11.8C15.825 11.8 16.5 12.52 16.5 13.4C16.5 14.28 15.825 15 15 15ZM19.5 13.56C19.5 10.656 17.5125 8.6 15 8.6C12.4875 8.6 10.5 10.656 10.5 13.56C10.5 15.432 11.9625 17.912 15 20.872C18.0375 17.912 19.5 15.432 19.5 13.56ZM15 7C18.15 7 21 9.576 21 13.56C21 16.216 18.9975 19.36 15 23C11.0025 19.36 9 16.216 9 13.56C9 9.576 11.85 7 15 7Z" fill="white"/>
</g>
<defs>
<filter id="filter0_f_385_2166" x="0.521277" y="0.521277" width="28.9574" height="28.9574" filterUnits="userSpaceOnUse" color-interpolation-filters="sRGB">
<feFlood flood-opacity="0" result="BackgroundImageFix"/>
<feBlend mode="normal" in="SourceGraphic" in2="BackgroundImageFix" result="shape"/>
<feGaussianBlur stdDeviation="0.239362" result="effect1_foregroundBlur_385_2166"/>
</filter>
<radialGradient id="paint0_radial_385_2166" cx="0" cy="0" r="1" gradientUnits="userSpaceOnUse" gradientTransform="translate(15 15) rotate(90) scale(14)">
<stop stop-color="#BA62FF"/>
<stop offset="1" stop-color="#8F00FF"/>
</radialGradient>
</defs>
</svg>
