
<svg width="30" height="30" viewBox="0 0 30 30" fill="none" xmlns="http://www.w3.org/2000/svg">
<g filter="url(#filter0_f_1_2544)">
<rect x="1.14056" y="1" width="28" height="28" rx="14" fill="url(#paint0_radial_1_2544)"/>
<path d="M18.8905 17.375C18.4452 17.375 18.0343 17.5312 17.7124 17.7922L14.4749 15.45C14.5291 15.1524 14.5291 14.8476 14.4749 14.55L17.7124 12.2078C18.0343 12.4687 18.4452 12.625 18.8905 12.625C19.9249 12.625 20.7655 11.7844 20.7655 10.75C20.7655 9.71563 19.9249 8.875 18.8905 8.875C17.8562 8.875 17.0155 9.71563 17.0155 10.75C17.0155 10.9313 17.0405 11.1047 17.089 11.2703L14.014 13.4969C13.5577 12.8922 12.8327 12.5 12.0155 12.5C10.6343 12.5 9.51555 13.6188 9.51555 15C9.51555 16.3812 10.6343 17.5 12.0155 17.5C12.8327 17.5 13.5577 17.1078 14.014 16.5031L17.089 18.7297C17.0405 18.8953 17.0155 19.0703 17.0155 19.25C17.0155 20.2844 17.8562 21.125 18.8905 21.125C19.9249 21.125 20.7655 20.2844 20.7655 19.25C20.7655 18.2156 19.9249 17.375 18.8905 17.375ZM18.8905 9.9375C19.339 9.9375 19.703 10.3016 19.703 10.75C19.703 11.1984 19.339 11.5625 18.8905 11.5625C18.4421 11.5625 18.078 11.1984 18.078 10.75C18.078 10.3016 18.4421 9.9375 18.8905 9.9375ZM12.0155 16.375C11.2577 16.375 10.6405 15.7578 10.6405 15C10.6405 14.2422 11.2577 13.625 12.0155 13.625C12.7734 13.625 13.3905 14.2422 13.3905 15C13.3905 15.7578 12.7734 16.375 12.0155 16.375ZM18.8905 20.0625C18.4421 20.0625 18.078 19.6984 18.078 19.25C18.078 18.8016 18.4421 18.4375 18.8905 18.4375C19.339 18.4375 19.703 18.8016 19.703 19.25C19.703 19.6984 19.339 20.0625 18.8905 20.0625Z" fill="white"/>
</g>
<defs>
<filter id="filter0_f_1_2544" x="0.661841" y="0.521277" width="28.9574" height="28.9574" filterUnits="userSpaceOnUse" color-interpolation-filters="sRGB">
<feFlood flood-opacity="0" result="BackgroundImageFix"/>
<feBlend mode="normal" in="SourceGraphic" in2="BackgroundImageFix" result="shape"/>
<feGaussianBlur stdDeviation="0.239362" result="effect1_foregroundBlur_1_2544"/>
</filter>
<radialGradient id="paint0_radial_1_2544" cx="0" cy="0" r="1" gradientUnits="userSpaceOnUse" gradientTransform="translate(15.1406 15) rotate(90) scale(14)">
<stop stop-color="#BA62FF"/>
<stop offset="1" stop-color="#8F00FF"/>
</radialGradient>
</defs>
</svg>
