<svg width="25" height="24" viewBox="0 0 25 24" fill="none" xmlns="http://www.w3.org/2000/svg">
<g clip-path="url(#clip0_385_2263)">
<path fill-rule="evenodd" clip-rule="evenodd" d="M20.2771 4.43003C20.5243 4.32602 20.7947 4.29015 21.0604 4.32614C21.3261 4.36214 21.5773 4.46869 21.7878 4.63471C21.9984 4.80073 22.1606 5.02014 22.2575 5.27011C22.3545 5.52008 22.3827 5.79147 22.3391 6.05603L20.0711 19.813C19.8511 21.14 18.3951 21.901 17.1781 21.24C16.1601 20.687 14.6481 19.835 13.2881 18.946C12.6081 18.501 10.5251 17.076 10.7811 16.062C11.0011 15.195 14.5011 11.937 16.5011 10C17.2861 9.23903 16.9281 8.80003 16.0011 9.50003C13.6981 11.238 10.0031 13.881 8.78114 14.625C7.70314 15.281 7.14114 15.393 6.46914 15.281C5.24314 15.077 4.10614 14.761 3.17814 14.376C1.92414 13.856 1.98514 12.132 3.17714 11.63L20.2771 4.43003Z" fill="#768192"/>
</g>
<defs>
<clipPath id="clip0_385_2263">
<rect width="24" height="24" fill="white" transform="translate(0.5)"/>
</clipPath>
</defs>
</svg>
