<svg width="21" height="18" viewBox="0 0 21 18" fill="none" xmlns="http://www.w3.org/2000/svg">
<path d="M15.3001 5.89314C15.3001 5.89318 15.2992 5.89344 15.2974 5.89383C15.2992 5.89331 15.3001 5.89311 15.3001 5.89314ZM14.7016 5.19221C14.7015 5.19237 14.7014 5.19252 14.7013 5.19269L14.7022 5.1906C14.7022 5.19062 14.702 5.19115 14.7016 5.19221ZM14.8655 4.45731C14.5974 4.53756 14.3206 4.69645 14.0492 4.90137L12.1984 14.3182C11.865 14.1001 11.2203 13.662 10.6968 13.1706C10.4331 12.923 10.2313 12.6905 10.1122 12.4919C10.0246 12.3459 10.0119 12.2703 10.01 12.2471C10.0196 12.2281 10.0501 12.1675 10.1263 12.0564C10.2263 11.9108 10.3703 11.727 10.5569 11.5082C10.9293 11.0716 11.4346 10.538 12.0067 9.95974C12.8382 9.11917 13.7834 8.21142 14.6256 7.40259C14.9432 7.09762 15.2461 6.80671 15.5228 6.53877L15.523 6.53852C15.7571 6.3116 15.952 6.06621 16.0672 5.81262C16.1542 5.62115 16.3265 5.11196 15.9467 4.69624C15.5788 4.29368 15.0667 4.3971 14.8655 4.45731ZM14.049 4.9015C11.7446 6.64055 8.07708 9.26226 6.89096 9.98442C6.37854 10.2962 6.03877 10.4471 5.77912 10.5165C5.53982 10.5804 5.34116 10.5827 5.09229 10.5412L5.09209 10.5412C3.9121 10.3449 2.83169 10.0427 1.96539 9.68328L1.96527 9.68323C1.36502 9.43432 1.351 8.58116 1.96803 8.32125C1.96805 8.32125 1.96807 8.32124 1.96808 8.32123L19.0679 1.12129C19.1915 1.06929 19.3267 1.05135 19.4596 1.06935C19.5924 1.08735 19.718 1.14063 19.8233 1.22364C19.9285 1.30665 20.0096 1.41635 20.0581 1.54134C20.1066 1.66624 20.1207 1.80183 20.099 1.93403C20.099 1.93412 20.0989 1.9342 20.0989 1.93429L17.8311 15.6904C17.8311 15.6906 17.831 15.6908 17.831 15.691C17.6917 16.5289 16.7822 16.9862 16.036 16.581C15.025 16.0318 13.5336 15.1911 12.1987 14.3185L14.049 4.9015Z" stroke="#7E768C" stroke-width="1.5"/>
</svg>
