<svg width="21" height="20" viewBox="0 0 21 20" fill="none" xmlns="http://www.w3.org/2000/svg">
<path d="M4.25 5.3125C4.25 3.41402 5.78902 1.875 7.6875 1.875C9.58598 1.875 11.125 3.41402 11.125 5.3125C11.125 7.21098 9.58598 8.75 7.6875 8.75C5.78902 8.75 4.25 7.21098 4.25 5.3125Z" fill="#768192"/>
<path d="M12.375 7.1875C12.375 5.6342 13.6342 4.375 15.1875 4.375C16.7408 4.375 18 5.6342 18 7.1875C18 8.7408 16.7408 10 15.1875 10C13.6342 10 12.375 8.7408 12.375 7.1875Z" fill="#768192"/>
<path d="M1.75 15.9375C1.75 12.6583 4.40831 10 7.6875 10C10.9667 10 13.625 12.6583 13.625 15.9375V15.9396C13.625 15.9728 13.6247 16.0061 13.6241 16.0391C13.6205 16.2545 13.5062 16.4529 13.3216 16.564C11.6756 17.5551 9.74714 18.125 7.6875 18.125C5.62786 18.125 3.69941 17.5551 2.05338 16.564C1.8688 16.4529 1.75448 16.2545 1.75086 16.0391C1.75029 16.0053 1.75 15.9715 1.75 15.9375Z" fill="#768192"/>
<path d="M14.8749 15.9401C14.8749 15.9802 14.8745 16.0203 14.8738 16.0601C14.8691 16.3423 14.801 16.6148 14.6797 16.86C14.8477 16.8699 15.017 16.875 15.1874 16.875C16.5171 16.875 17.7767 16.5669 18.897 16.0177C19.1029 15.9168 19.2369 15.7113 19.2464 15.4823C19.2487 15.4259 19.2499 15.3693 19.2499 15.3125C19.2499 13.0688 17.431 11.25 15.1874 11.25C14.5653 11.25 13.9759 11.3898 13.4489 11.6397C14.3445 12.8384 14.8749 14.326 14.8749 15.9375V15.9401Z" fill="#768192"/>
</svg>
