
<svg width="64" height="64" viewBox="0 0 64 64" fill="none" xmlns="http://www.w3.org/2000/svg">
<path d="M56 31.7553V12.315C56 12.0151 55.6252 11.8902 55.4253 12.1151L34.1859 38.6518C34.011 38.8517 34.1609 39.1765 34.4358 39.1765H49.7781C50.2029 39.1765 50.5777 38.9766 50.8276 38.6518L55.6752 32.6048C55.8751 32.3799 56 32.0801 56 31.7553ZM6.32484 32.6298L22.2669 52.5698C22.5167 52.8947 22.9165 53.0696 23.3413 53.0696H38.6837C38.9585 53.0696 39.1084 52.7697 38.9335 52.5698L6.57471 12.1401C6.37481 11.9152 6 12.0401 6 12.34V31.7802C6.02499 32.0801 6.12494 32.3799 6.32484 32.6298Z" fill="#FF3D00"/>
</svg>
