
<svg width="64" height="64" viewBox="0 0 64 64" fill="none" xmlns="http://www.w3.org/2000/svg">
<path d="M50.8453 30.9295C50.8482 41.9184 42.1763 50.8297 31.4749 50.8326C20.7734 50.8365 12.0947 41.93 12.0918 30.9411V30.9285C12.0889 19.9387 20.7608 11.0273 31.4623 11.0244C42.1637 11.0215 50.8414 19.9261 50.8453 30.9159V30.9295Z" fill="url(#paint0_linear_210_5736)"/>
<path d="M33.3631 11.2996L25.6056 11.7838C25.4339 11.7927 25.2671 11.8447 25.1208 11.9349L18.333 16.2933C18.1866 16.3835 18.0653 16.509 17.9801 16.6582C17.895 16.8075 17.8489 16.9758 17.8459 17.1475C17.8429 17.3193 17.8832 17.489 17.963 17.6412C18.0429 17.7933 18.1598 17.923 18.3029 18.0182C19.1979 18.6206 20.0842 19.3141 20.3334 19.9552C20.8697 21.3751 21.4786 23.4555 22.0003 25.2521C22.229 26.0533 22.4714 26.8505 22.7276 27.6434C22.8372 27.9746 22.9274 28.271 23.0301 28.5209C23.1329 28.7707 23.1979 28.9606 23.4549 29.2473C23.4936 29.2802 23.5334 29.3102 23.5761 29.3383C24.0347 29.7112 24.5128 29.9155 25.0907 30.0947C25.6687 30.2739 26.3358 30.4153 26.97 30.5189C27.6041 30.6226 28.2121 30.6603 28.7581 30.67C29.304 30.6797 29.689 30.7988 30.3338 30.3979C30.3648 30.3795 30.3959 30.3591 30.425 30.3378C30.7013 30.118 30.7295 29.9707 30.7886 29.8535C30.8478 29.7364 30.8982 29.6385 30.9399 29.5204C31.0242 29.2841 31.1008 29.0187 31.1823 28.7029C31.5688 27.1817 31.8424 25.634 32.0007 24.0724C32.0705 23.3867 32.1539 22.9325 32.0007 22.3175C31.993 22.2855 32.0104 22.2594 32.0007 22.2264H31.9687C31.8136 21.4778 31.416 20.394 30.7265 19.1698C30.1117 18.0814 29.2879 17.125 28.3023 16.3552C28.3372 16.3184 28.4158 16.2526 28.6049 16.1732L32.3934 16.2022C32.5069 16.2012 32.6194 16.1799 32.727 16.1422C32.8162 16.1131 32.9103 16.1751 33.3631 15.9601C33.59 15.8535 33.8674 15.6075 33.9992 15.3548C34.1311 15.102 34.1864 14.8879 34.2116 14.6584L34.454 12.4492C34.4725 12.299 34.4576 12.1465 34.4102 12.0027C34.3628 11.8589 34.2841 11.7274 34.1799 11.6175C34.0756 11.5077 33.9483 11.4222 33.8071 11.3672C33.6659 11.3122 33.5143 11.2891 33.3631 11.2996Z" fill="url(#paint1_linear_210_5736)"/>
<path d="M33.4232 12.3281L33.1808 14.5344C33.1129 15.162 32.8482 15.009 32.3828 15.1601L28.3915 15.1456C27.2143 15.5233 27.0854 16.1489 27.1649 16.6836C29.401 17.9252 30.7973 21.4497 31 22.4966C31.287 23.5058 30.1806 29.2056 29.7879 29.5184C29.1256 29.9301 25.2013 29.3538 24.2122 28.5499C23.6808 27.9543 22.4309 22.577 21.3031 19.5911C20.8881 18.5228 19.7749 17.7722 18.8789 17.1698L25.6667 12.8114L33.4232 12.3281Z" fill="url(#paint2_radial_210_5736)"/>
<path d="M14.0607 23.5571C13.8769 23.5744 13.7029 23.6475 13.5621 23.7667C13.4213 23.8858 13.3205 24.0453 13.2733 24.2235L10.9402 32.1838C10.8867 32.3672 10.8931 32.5629 10.9585 32.7425C11.0239 32.922 11.1449 33.0761 11.3039 33.1823C12.1989 33.7838 13.1249 34.4859 13.3945 35.1794C13.4196 35.2328 13.4502 35.2834 13.4857 35.3305C13.4934 35.3566 13.5041 35.3683 13.5157 35.4215C13.5574 35.6017 13.6059 35.9145 13.667 36.269C13.7901 36.978 13.9598 37.9397 14.1819 38.9324C14.404 39.9252 14.6774 40.9508 15.0915 41.838C15.5055 42.7252 16.0592 43.5465 17.0308 43.8661C16.7952 43.7886 16.9911 43.8758 17.122 43.9571C17.2529 44.0385 17.4245 44.1499 17.6369 44.2903C18.0616 44.5712 18.6046 44.9237 19.1515 45.2889C19.6984 45.654 20.2483 46.0414 20.6972 46.3174C20.9212 46.4559 21.1249 46.5576 21.3033 46.6506C21.3925 46.6971 21.473 46.7329 21.5758 46.7717C21.6785 46.8104 21.7387 46.9063 22.1518 46.8317C22.6269 46.7465 22.7733 46.4821 22.849 46.3474C22.9246 46.2128 22.9411 46.1111 22.9702 46.0143C23.0274 45.8215 23.0865 45.6288 23.1214 45.4089C23.1922 44.9683 23.2436 44.4249 23.3037 43.8961C23.3639 43.3673 23.425 42.8317 23.486 42.4734C23.5113 42.3261 23.5306 42.2612 23.5462 42.2012C23.6131 42.1441 23.7081 42.1518 23.7585 42.0801C23.9563 41.8022 23.9786 41.5135 23.9709 41.2937C23.9544 40.853 23.8138 40.516 23.6373 40.1431C23.2843 39.3964 22.7064 38.5373 22.0616 37.6307C20.8175 35.8806 19.3949 34.1576 18.7588 33.4545C18.7055 33.2801 18.6754 33.101 18.6075 32.9102C18.5232 32.6719 18.4282 32.4123 18.3651 32.1838C19.7062 32.7552 21.0958 33.2704 22.6376 33.4545C22.7294 33.4586 22.8213 33.4485 22.91 33.4244C23.3912 33.3438 23.8599 33.2012 24.3045 33.0002C24.5663 32.8821 24.8436 32.761 25.0918 32.546C25.3401 32.331 25.6164 31.9862 25.6678 31.5174C25.6912 31.3041 25.6376 31.0894 25.5166 30.9121C23.7934 28.3397 21.3169 27.6821 18.7288 26.7358L17.2422 24.9189C17.1513 24.8135 17.0371 24.7306 16.9087 24.6767L14.5145 23.6482C14.374 23.5781 14.2174 23.5467 14.0607 23.5571Z" fill="url(#paint3_linear_210_5736)"/>
<path d="M18.1756 27.4971C20.9101 28.516 23.153 29.0351 24.7491 31.4177C24.6813 32.0443 23.3082 32.4666 22.7506 32.5577C21.0944 32.3591 19.57 31.7654 18.0738 31.0874C16.5941 30.7688 17.8818 33.3761 17.9613 33.9107C19.0183 35.0594 24.2604 41.4787 22.8214 41.6531C22.4684 41.6966 22.3162 45.9097 21.9875 45.9678C21.6587 46.0259 17.6607 43.1223 17.3019 43.0051C14.997 42.2468 14.6188 35.0642 14.2426 34.8492C13.8285 33.7809 12.7143 33.0303 11.8184 32.4279L14.1495 24.4744L16.5562 25.502L18.1756 27.4971Z" fill="url(#paint4_radial_210_5736)"/>
<path d="M50.7163 20.4891L50.6863 13.7695C50.6882 13.61 50.6582 13.4517 50.598 13.3039C50.5377 13.1561 50.4485 13.0219 50.3356 12.9091C50.2226 12.7963 50.0882 12.7072 49.9403 12.647C49.7924 12.5869 49.6339 12.5569 49.4741 12.5588L43.3225 12.4988C43.0867 12.4975 42.8557 12.5654 42.6583 12.6941C42.4609 12.8229 42.3058 13.0067 42.2121 13.2229C42.1185 13.439 42.0906 13.6778 42.1318 13.9097C42.173 14.1415 42.2815 14.3562 42.4439 14.5269L48.6257 21.3065C48.9602 21.6756 49.4887 21.7995 49.9541 21.6184C50.1807 21.5294 50.3749 21.3738 50.511 21.1721C50.6471 20.9705 50.7187 20.7323 50.7163 20.4891Z" fill="black" fill-opacity="0.318"/>
<path d="M50.3125 20.4902L50.2824 13.7706C50.2796 13.5628 50.1958 13.3644 50.0487 13.2175C49.9017 13.0706 49.703 12.9869 49.495 12.9841L43.3433 12.9241C43.1886 12.9234 43.037 12.9675 42.9067 13.0509C42.7765 13.1343 42.6731 13.2535 42.6091 13.3942C42.5451 13.5349 42.5231 13.691 42.5458 13.8439C42.5686 13.9967 42.6351 14.1398 42.7373 14.2558L48.919 21.0355C49.0284 21.1548 49.1714 21.2383 49.3292 21.2749C49.487 21.3114 49.6522 21.2994 49.8031 21.2404C49.9539 21.1814 50.0833 21.0781 50.1742 20.9442C50.2652 20.8103 50.3134 20.652 50.3125 20.4902Z" fill="black" fill-opacity="0.318"/>
<path d="M50.0504 20.489L50.0203 13.7694C50.0215 13.6975 50.0083 13.6262 49.9815 13.5595C49.9547 13.4928 49.9148 13.4321 49.8642 13.381C49.8131 13.3304 49.7523 13.2905 49.6856 13.2636C49.6188 13.2366 49.5474 13.2232 49.4754 13.2241L43.3237 13.1641C43.2181 13.1632 43.1146 13.1935 43.026 13.251C42.9375 13.3085 42.8679 13.3907 42.8258 13.4874C42.7837 13.5842 42.7711 13.6912 42.7894 13.795C42.8078 13.8989 42.8563 13.9951 42.929 14.0716L49.1108 20.8512C49.1834 20.9333 49.2794 20.9912 49.3859 21.0171C49.4925 21.0431 49.6044 21.0358 49.7067 20.9964C49.809 20.957 49.8967 20.8872 49.9582 20.7965C50.0196 20.7058 50.0518 20.5985 50.0504 20.489Z" fill="black" fill-opacity="0.318"/>
<path d="M49.7532 20.494L49.7231 13.7743C49.7191 13.7424 49.7088 13.7114 49.6931 13.6833C49.6797 13.6491 49.6592 13.618 49.633 13.5923C49.6237 13.5815 49.6136 13.5715 49.6029 13.5622C49.5657 13.542 49.524 13.5317 49.4817 13.5322C49.4724 13.5215 49.4624 13.5115 49.4516 13.5022L43.2999 13.4421C43.2786 13.4494 43.2584 13.4595 43.2398 13.4722C43.2078 13.4764 43.1769 13.4866 43.1487 13.5022C43.1256 13.5189 43.1053 13.5392 43.0885 13.5622C43.0732 13.5906 43.063 13.6214 43.0585 13.6533C43.043 13.7025 43.043 13.7552 43.0585 13.8044C43.0721 13.8385 43.0926 13.8694 43.1186 13.8954L49.3004 20.6751C49.3292 20.6999 49.3632 20.7182 49.3999 20.7285C49.4366 20.7389 49.4751 20.7412 49.5127 20.7351C49.555 20.7352 49.5966 20.7249 49.6339 20.7051C49.6456 20.6954 49.6543 20.6857 49.664 20.6751C49.6905 20.6495 49.7111 20.6184 49.7241 20.584C49.739 20.5559 49.7488 20.5254 49.7532 20.494Z" fill="black" fill-opacity="0.333"/>
<path d="M43.6895 13.816L49.4378 13.7908L49.3825 19.9593L43.6895 13.816Z" fill="url(#paint5_linear_210_5736)"/>
<path d="M43.7272 49.0111L50.4549 48.9811C50.6146 48.9829 50.773 48.9528 50.9209 48.8926C51.0688 48.8324 51.2031 48.7433 51.316 48.6305C51.429 48.5178 51.5182 48.3836 51.5784 48.2359C51.6387 48.0882 51.6688 47.9299 51.667 47.7704L51.7271 41.6261C51.7293 41.3902 51.6619 41.159 51.5331 40.9612C51.4044 40.7635 51.2201 40.608 51.0034 40.5144C50.7867 40.4207 50.5471 40.393 50.3146 40.4346C50.0822 40.4763 49.8672 40.5855 49.6966 40.7486L42.9088 46.923C42.7281 47.0862 42.6014 47.3006 42.5456 47.5375C42.4898 47.7743 42.5075 48.0226 42.5963 48.2492C42.6851 48.4758 42.8409 48.6701 43.0429 48.8062C43.2449 48.9423 43.4836 49.0138 43.7272 49.0111Z" fill="black" fill-opacity="0.318"/>
<path d="M43.7474 48.6083L50.4751 48.5782C50.683 48.5752 50.8815 48.4914 51.0285 48.3446C51.1755 48.1977 51.2595 47.9995 51.2625 47.7918L51.3226 41.6475C51.3236 41.4928 51.2798 41.3411 51.1964 41.2107C51.113 41.0803 50.9935 40.9769 50.8525 40.9129C50.7115 40.8488 50.5549 40.827 50.4017 40.8499C50.2485 40.8729 50.1053 40.9396 49.9893 41.0422L43.2015 47.2165C43.0814 47.3255 42.9974 47.4684 42.9605 47.6262C42.9235 47.784 42.9355 47.9493 42.9946 48.1001C43.0538 48.251 43.1575 48.3804 43.2919 48.4711C43.4263 48.5619 43.5852 48.6097 43.7474 48.6083Z" fill="black" fill-opacity="0.318"/>
<path d="M43.727 48.3459L50.4547 48.3159C50.5264 48.3165 50.5976 48.3029 50.664 48.2758C50.7304 48.2486 50.7907 48.2086 50.8415 48.1579C50.8922 48.1072 50.9323 48.047 50.9595 47.9806C50.9866 47.9143 51.0003 47.8432 50.9997 47.7716L51.0598 41.6273C51.0625 41.521 51.0333 41.4164 50.9761 41.3267C50.9189 41.2371 50.8361 41.1666 50.7385 41.1243C50.6409 41.0819 50.5328 41.0696 50.4282 41.089C50.3236 41.1084 50.2271 41.1586 50.1512 41.2331L43.3634 47.4074C43.2768 47.4087 43.1917 47.4308 43.1156 47.472C43.0394 47.5132 42.9743 47.5721 42.9259 47.6438C42.8774 47.7156 42.847 47.7979 42.8374 47.8839C42.8277 47.9699 42.8389 48.0569 42.8702 48.1376C42.9015 48.2183 42.9518 48.2902 43.0169 48.3472C43.082 48.4043 43.16 48.4448 43.2441 48.4653C43.3283 48.4857 43.4161 48.4856 43.5002 48.4648C43.5843 48.444 43.6621 48.4032 43.727 48.3459Z" fill="black" fill-opacity="0.318"/>
<path d="M43.6998 48.0542L50.4275 48.0242C50.4595 48.02 50.4904 48.0098 50.5187 47.9942C50.553 47.9808 50.584 47.9603 50.6098 47.9341C50.6206 47.9249 50.6306 47.9148 50.6399 47.9041C50.66 47.867 50.6704 47.8253 50.6699 47.783C50.6807 47.7738 50.6907 47.7637 50.7 47.753L50.7601 41.6087C50.7525 41.5876 50.7424 41.5675 50.7301 41.5487C50.7254 41.5168 50.7152 41.486 50.7 41.4576C50.6833 41.4346 50.663 41.4143 50.6399 41.3976C50.6115 41.3823 50.5807 41.3721 50.5487 41.3676C50.4995 41.3521 50.4467 41.3521 50.3975 41.3676C50.3632 41.381 50.3321 41.4014 50.3063 41.4276L43.5185 47.6019C43.4936 47.6308 43.4754 47.6647 43.465 47.7014C43.4546 47.738 43.4523 47.7764 43.4584 47.814C43.4584 47.8567 43.4691 47.8983 43.4885 47.9351C43.4972 47.9467 43.5088 47.9554 43.5185 47.9651C43.5439 47.9918 43.5751 48.0123 43.6097 48.0252C43.6376 48.0405 43.6682 48.0503 43.6998 48.0542Z" fill="black" fill-opacity="0.333"/>
<path d="M50.3889 40.8262L50.4092 47.6969H43.8086L50.3889 40.8262Z" fill="url(#paint6_linear_210_5736)"/>
<path d="M10.2735 41.021L10.3035 47.7406C10.302 47.9 10.3323 48.0581 10.3926 48.2057C10.453 48.3533 10.5422 48.4874 10.6551 48.6001C10.7679 48.7128 10.9022 48.8019 11.0499 48.8622C11.1977 48.9225 11.356 48.9528 11.5156 48.9512L17.6673 49.0113C18.1502 49.0161 18.5876 48.7314 18.7796 48.2888C18.8733 48.0723 18.9011 47.833 18.8595 47.6008C18.8179 47.3687 18.7089 47.1538 18.5459 46.9832L12.3641 40.2035C12.2002 40.0241 11.9857 39.8985 11.7488 39.8434C11.512 39.7882 11.264 39.8061 11.0375 39.8946C10.8111 39.9832 10.6168 40.1382 10.4804 40.3393C10.344 40.5404 10.2718 40.7781 10.2735 41.021Z" fill="black" fill-opacity="0.318"/>
<path d="M10.6973 41.0412L10.7274 47.7608C10.7304 47.9686 10.8144 48.167 10.9617 48.3139C11.1089 48.4608 11.3077 48.5445 11.5157 48.5472L17.6674 48.6073C17.8229 48.6096 17.9756 48.5666 18.1069 48.4835C18.2383 48.4005 18.3425 48.2809 18.4068 48.1396C18.4712 47.9982 18.4928 47.8412 18.4691 47.6877C18.4454 47.5342 18.3774 47.391 18.2735 47.2756L12.0917 40.4959C11.9825 40.3759 11.8395 40.2917 11.6814 40.2545C11.5234 40.2173 11.3577 40.2289 11.2064 40.2877C11.0552 40.3471 10.9255 40.4509 10.8346 40.5854C10.7437 40.72 10.6958 40.8789 10.6973 41.0412Z" fill="black" fill-opacity="0.318"/>
<path d="M10.9395 41.0209L10.9696 47.7405C10.9682 47.8124 10.9814 47.8837 11.0084 47.9503C11.0354 48.0169 11.0756 48.0773 11.1267 48.128C11.2294 48.2316 11.3691 48.2878 11.5155 48.2849L17.6672 48.3449C17.7735 48.3474 17.8781 48.3182 17.9677 48.2609C18.0573 48.2037 18.1277 48.121 18.17 48.0236C18.2123 47.9261 18.2245 47.8183 18.205 47.7138C18.1856 47.6094 18.1354 47.5132 18.0609 47.4374L11.8791 40.6577C11.8065 40.5756 11.7103 40.5177 11.6037 40.4918C11.4971 40.4659 11.3851 40.4732 11.2828 40.5127C11.1804 40.5523 11.0927 40.6222 11.0313 40.713C10.97 40.8039 10.9379 40.9113 10.9395 41.0209Z" fill="black" fill-opacity="0.318"/>
<path d="M11.207 40.9984L11.2371 47.7181C11.2413 47.75 11.2515 47.7809 11.2672 47.8091C11.2808 47.8432 11.3013 47.8742 11.3273 47.9001C11.336 47.9118 11.3467 47.9205 11.3573 47.9302C11.3945 47.9503 11.4362 47.9606 11.4785 47.9602C11.4873 47.9718 11.4979 47.9805 11.5086 47.9902L17.6603 48.0503C17.6815 48.0428 17.7017 48.0327 17.7204 48.0202C17.7523 48.0155 17.7831 48.0054 17.8116 47.9902C17.8346 47.9735 17.8549 47.9532 17.8717 47.9302C17.887 47.9018 17.8972 47.871 17.9017 47.8391C17.9172 47.7899 17.9172 47.7372 17.9017 47.688C17.8879 47.654 17.8674 47.6231 17.8416 47.597L11.6599 40.8173C11.6312 40.7922 11.5972 40.7738 11.5605 40.7634C11.5237 40.753 11.4852 40.7509 11.4475 40.7573C11.4053 40.7573 11.3637 40.7676 11.3263 40.7873C11.3153 40.7963 11.3053 40.8064 11.2962 40.8173C11.2699 40.843 11.2494 40.8741 11.2361 40.9084C11.2208 40.9363 11.2109 40.9668 11.207 40.9984Z" fill="black" fill-opacity="0.333"/>
<path d="M17.8192 47.6746H11.6055V40.9124L17.8192 47.6746Z" fill="url(#paint7_linear_210_5736)"/>
<path d="M19.3027 12.5704L12.575 12.6004C12.4154 12.5989 12.2571 12.6291 12.1093 12.6894C11.9616 12.7497 11.8273 12.8388 11.7145 12.9516C11.6016 13.0643 11.5124 13.1984 11.452 13.346C11.3916 13.4935 11.3614 13.6517 11.3629 13.8111L11.3028 19.9554C11.3006 20.1913 11.368 20.4226 11.4968 20.6203C11.6255 20.8181 11.8098 20.9735 12.0265 21.0672C12.2433 21.1608 12.4828 21.1886 12.7153 21.1469C12.9477 21.1052 13.1627 20.996 13.3333 20.8329L20.1211 14.6585C20.3023 14.4955 20.4295 14.2812 20.4856 14.0441C20.5418 13.807 20.5242 13.5585 20.4353 13.3316C20.3464 13.1048 20.1903 12.9104 19.988 12.7744C19.7856 12.6384 19.5466 12.5672 19.3027 12.5704Z" fill="black" fill-opacity="0.318"/>
<path d="M19.3037 12.9947L12.576 13.0247C12.3681 13.0277 12.1696 13.1115 12.0226 13.2583C11.8756 13.4052 11.7917 13.6035 11.7886 13.8111L11.7285 19.9554C11.7276 20.11 11.7715 20.2615 11.8549 20.3916C11.9383 20.5218 12.0576 20.6251 12.1984 20.6891C12.3392 20.7531 12.4956 20.775 12.6486 20.7523C12.8017 20.7295 12.9448 20.663 13.0609 20.5608L19.8487 14.3864C19.9686 14.2774 20.0526 14.1347 20.0896 13.977C20.1266 13.8193 20.1147 13.6541 20.0557 13.5032C19.9966 13.3524 19.8931 13.223 19.7588 13.1322C19.6246 13.0414 19.4659 12.9934 19.3037 12.9947Z" fill="black" fill-opacity="0.318"/>
<path d="M19.3035 13.2369L12.5758 13.2669C12.504 13.2657 12.4326 13.279 12.3659 13.3059C12.2993 13.3329 12.2387 13.3729 12.1879 13.4237C12.137 13.4745 12.0969 13.5349 12.07 13.6015C12.043 13.6681 12.0297 13.7394 12.0309 13.8112L11.9708 19.9555C11.9692 20.0613 11.9991 20.1652 12.0565 20.254C12.114 20.3429 12.1966 20.4128 12.2937 20.4548C12.3909 20.4969 12.4984 20.5092 12.6026 20.4904C12.7069 20.4715 12.8031 20.4222 12.8794 20.3487L19.6672 14.1744C19.749 14.1017 19.8067 14.0058 19.8324 13.8995C19.8581 13.7932 19.8507 13.6815 19.8112 13.5796C19.7716 13.4776 19.7018 13.3901 19.6111 13.3288C19.5203 13.2676 19.413 13.2355 19.3035 13.2369Z" fill="black" fill-opacity="0.318"/>
<path d="M19.3044 13.509L12.5767 13.5391C12.5447 13.5431 12.5138 13.5533 12.4856 13.5691C12.4512 13.5827 12.4201 13.6035 12.3944 13.6301C12.3835 13.6391 12.3734 13.6492 12.3644 13.6601C12.3449 13.6975 12.3346 13.739 12.3343 13.7812C12.3234 13.7902 12.3133 13.8003 12.3043 13.8112L12.2441 19.9555C12.2512 19.9769 12.2613 19.9971 12.2742 20.0156C12.2783 20.0476 12.2885 20.0785 12.3043 20.1066C12.321 20.1297 12.3413 20.1499 12.3644 20.1667C12.3926 20.1824 12.4235 20.1926 12.4555 20.1967C12.5048 20.2122 12.5576 20.2122 12.6068 20.1967C12.6411 20.1833 12.6721 20.1628 12.698 20.1366L19.4858 13.9623C19.511 13.9337 19.5295 13.8998 19.5399 13.8631C19.5503 13.8264 19.5523 13.7878 19.5459 13.7502C19.5456 13.708 19.5353 13.6665 19.5158 13.6291C19.5068 13.6182 19.4967 13.6081 19.4858 13.5991C19.4601 13.5727 19.429 13.5522 19.3946 13.5391C19.3667 13.5235 19.3361 13.5133 19.3044 13.509Z" fill="black" fill-opacity="0.333"/>
<path d="M12.5273 19.9593L12.5632 13.8257L19.2987 13.7957L12.5273 19.9593Z" fill="url(#paint8_linear_210_5736)"/>
<path d="M18.365 18.2305C18.2525 18.2421 18.1507 18.3021 18.0857 18.3951C18.0207 18.4881 18.0013 18.6053 18.0314 18.7147L18.6985 21.045L23.3045 41.505L22.8798 43.7443C22.8699 43.7984 22.8718 43.8541 22.8853 43.9075C22.8988 43.9609 22.9236 44.0108 22.9581 44.0538C22.9926 44.0967 23.0359 44.1318 23.0851 44.1566C23.1344 44.1814 23.1884 44.1954 23.2435 44.1975H29.9401C29.9983 44.1958 30.0553 44.1809 30.107 44.1541C30.1587 44.1273 30.2036 44.0893 30.2385 44.0428C30.2735 43.9962 30.2975 43.9425 30.3087 43.8854C30.32 43.8284 30.3183 43.7696 30.3037 43.7133L29.879 41.5641L31.031 37.1757L32.4555 41.6261L31.8194 43.6842C31.7987 43.7424 31.7924 43.8046 31.8008 43.8657C31.8092 43.9268 31.8322 43.985 31.8679 44.0354C31.9035 44.0858 31.9507 44.1269 32.0056 44.1553C32.0604 44.1837 32.1212 44.1985 32.183 44.1985L39.7281 44.2295C39.79 44.2297 39.8509 44.215 39.9059 44.1867C39.9609 44.1584 40.0082 44.1173 40.0438 44.0668C40.0795 44.0164 40.1025 43.9581 40.1108 43.8969C40.1192 43.8357 40.1126 43.7734 40.0918 43.7152L39.2132 41.354L42.6673 21.5293L43.9705 18.7748C43.9967 18.7175 44.0085 18.6546 44.0048 18.5917C44.001 18.5288 43.9819 18.4678 43.9491 18.414C43.9163 18.3602 43.8707 18.3152 43.8165 18.2831C43.7622 18.2509 43.7009 18.2325 43.6379 18.2295H37.0615C37.0038 18.2274 36.9464 18.2383 36.8935 18.2613C36.8406 18.2843 36.7935 18.3188 36.7557 18.3624C36.7179 18.406 36.6904 18.4575 36.6752 18.5131C36.66 18.5687 36.6575 18.627 36.6678 18.6837L37.0615 20.923L34.7885 33.7259L31.2434 20.0465C31.2167 19.9715 31.1674 19.9066 31.1023 19.8607C31.0372 19.8148 30.9594 19.7901 30.8797 19.7901C30.8001 19.7901 30.7223 19.8148 30.6572 19.8607C30.5921 19.9066 30.5428 19.9715 30.5161 20.0465L27.0921 33.6358L24.2432 20.9239L24.6068 18.6847C24.6148 18.6235 24.6079 18.5614 24.5869 18.5034C24.5658 18.4454 24.531 18.3933 24.4856 18.3515C24.4507 18.3141 24.4085 18.2841 24.3617 18.2634C24.3149 18.2426 24.2644 18.2314 24.2131 18.2305H18.395C18.385 18.2295 18.375 18.2295 18.365 18.2305Z" fill="black" fill-opacity="0.288"/>
<path d="M18.2434 17.9274C18.1507 17.9491 18.0634 17.9894 17.9868 18.0459C17.9102 18.1024 17.8458 18.1738 17.7977 18.2559C17.7495 18.3379 17.7186 18.4289 17.7067 18.5233C17.6948 18.6176 17.7022 18.7134 17.7285 18.8048L18.3947 21.1051H18.3646L22.9706 41.5041L22.5459 43.6833C22.5298 43.7841 22.5357 43.8872 22.5634 43.9854C22.591 44.0837 22.6396 44.1748 22.7059 44.2525C22.7721 44.3302 22.8545 44.3927 22.9472 44.4355C23.04 44.4783 23.1409 44.5006 23.2431 44.5007H29.9398C30.0449 44.5012 30.1489 44.4783 30.2441 44.4337C30.3393 44.389 30.4234 44.3237 30.4901 44.2426C30.5569 44.1614 30.6047 44.0664 30.6301 43.9645C30.6555 43.8625 30.6579 43.7562 30.637 43.6533L30.2123 41.5951L31.0607 38.3564L32.1216 41.6252L31.5155 43.5922C31.4525 43.8043 31.4932 44.0329 31.6232 44.2121C31.7531 44.3913 31.9606 44.4968 32.1817 44.5007L39.7278 44.5317C39.8405 44.5314 39.9515 44.5043 40.0516 44.4525C40.1517 44.4007 40.238 44.3258 40.3033 44.234C40.3685 44.1422 40.4109 44.0362 40.4268 43.9247C40.4428 43.8132 40.4318 43.6996 40.3949 43.5932L39.5465 41.293L42.9704 21.6804L44.2737 18.9259C44.3219 18.8189 44.3428 18.7015 44.3343 18.5845C44.3259 18.4674 44.2885 18.3542 44.2254 18.2552C44.1623 18.1562 44.0755 18.0744 43.9729 18.0171C43.8703 17.9599 43.7551 17.929 43.6376 17.9274H37.0612C36.9591 17.9275 36.8582 17.9497 36.7655 17.9925C36.6729 18.0353 36.5906 18.0976 36.5243 18.1752C36.4581 18.2528 36.4094 18.3438 36.3817 18.442C36.354 18.5401 36.348 18.6431 36.3639 18.7438L36.7276 20.923L34.7581 32.183L31.5766 19.9554C31.5478 19.7916 31.4621 19.6432 31.3346 19.5363C31.2071 19.4293 31.0459 19.3707 30.8794 19.3707C30.7129 19.3707 30.5517 19.4293 30.4242 19.5363C30.2967 19.6432 30.211 19.7916 30.1822 19.9554L27.0918 32.183L24.5764 20.8329L24.91 18.7448C24.9263 18.644 24.9205 18.5409 24.8929 18.4426C24.8654 18.3443 24.8168 18.2532 24.7504 18.1755C24.6841 18.0978 24.6017 18.0355 24.5089 17.9928C24.416 17.9501 24.315 17.9281 24.2128 17.9283H18.3947C18.3444 17.9227 18.2937 17.9223 18.2434 17.9274Z" fill="black" fill-opacity="0.288"/>
<path d="M18.1823 17.6252C18.046 17.6538 17.9172 17.7103 17.8039 17.7912C17.6907 17.8721 17.5955 17.9756 17.5243 18.0951C17.4531 18.2146 17.4075 18.3476 17.3904 18.4856C17.3733 18.6236 17.3851 18.7636 17.425 18.8969L18.0921 21.1671V21.2271L22.668 41.4451L22.2433 43.6242C22.1919 43.9187 22.2734 44.2199 22.4664 44.4494C22.6593 44.676 22.9444 44.8068 23.2431 44.8049H29.9397C30.0905 44.8067 30.2397 44.7747 30.3764 44.7113C30.5131 44.6479 30.6339 44.5547 30.7298 44.4386C30.8257 44.3224 30.8943 44.1863 30.9306 44.0402C30.9669 43.894 30.9699 43.7417 30.9395 43.5942L30.5157 41.5351L31.0917 39.416L31.7889 41.6252L31.2129 43.5022C31.1667 43.6532 31.1567 43.813 31.1837 43.9686C31.2107 44.1241 31.2739 44.2712 31.3683 44.3979C31.4626 44.5246 31.5855 44.6274 31.727 44.6979C31.8684 44.7684 32.0245 44.8047 32.1826 44.8039L39.7277 44.8339C39.8868 44.8315 40.043 44.7916 40.1837 44.7174C40.3243 44.6432 40.4454 44.5369 40.537 44.407C40.6287 44.2771 40.6882 44.1275 40.7109 43.9702C40.7335 43.813 40.7186 43.6526 40.6674 43.5022L39.849 41.293L43.2729 21.7405L44.5451 19.047C44.6146 18.8944 44.6448 18.7268 44.633 18.5596C44.6212 18.3923 44.5677 18.2307 44.4774 18.0893C44.3871 17.948 44.2629 17.8314 44.1161 17.7502C43.9692 17.6689 43.8044 17.6257 43.6366 17.6242H37.0611C36.9133 17.6228 36.767 17.6539 36.6326 17.7154C36.4982 17.7769 36.379 17.8672 36.2835 17.98C36.1881 18.0927 36.1187 18.2251 36.0803 18.3676C36.0419 18.5102 36.0354 18.6595 36.0614 18.8049L36.425 20.924L34.6679 30.7913L31.85 19.8954C31.7904 19.6844 31.6635 19.4985 31.4884 19.3662C31.3134 19.2339 31.0999 19.1622 30.8803 19.1622C30.6608 19.1622 30.4473 19.2339 30.2722 19.3662C30.0972 19.4985 29.9702 19.6844 29.9106 19.8954L27.1218 30.9724L24.8799 20.894L25.2135 18.7748C25.2346 18.6317 25.2245 18.4856 25.1838 18.3468C25.1431 18.2079 25.0728 18.0794 24.9777 17.9702C24.8827 17.861 24.7651 17.7736 24.6331 17.7141C24.501 17.6545 24.3576 17.6242 24.2128 17.6252H18.3946C18.3241 17.6174 18.2529 17.6174 18.1823 17.6252Z" fill="black" fill-opacity="0.288"/>
<path d="M18.2427 17.2619C18.0446 17.2823 17.8532 17.3455 17.682 17.4472C17.5108 17.5489 17.3639 17.6866 17.2514 17.8508C17.1389 18.0149 17.0635 18.2016 17.0306 18.3978C16.9977 18.594 17.0079 18.795 17.0607 18.9869L17.7278 21.2571V21.3172L22.3038 41.505L21.9101 43.5331C21.871 43.7306 21.876 43.9343 21.9247 44.1296C21.9735 44.3249 22.0648 44.5071 22.1921 44.6632C22.3195 44.8192 22.4797 44.9453 22.6614 45.0324C22.8431 45.1195 23.0418 45.1654 23.2434 45.167H29.94C30.3851 45.169 30.8031 44.953 31.061 44.5917C31.3189 44.953 31.7369 45.169 32.182 45.167L39.7271 45.198C40.1741 45.1942 40.5911 44.9733 40.8432 44.6053C41.0953 44.2373 41.1545 43.7704 40.9993 43.352L40.242 41.2639L43.6058 21.8934L44.8781 19.23C45.0846 18.8038 45.0565 18.3021 44.8044 17.9012C44.6798 17.7045 44.5072 17.5426 44.3028 17.4308C44.0984 17.319 43.8689 17.2609 43.6359 17.2619H37.0604C36.8595 17.2601 36.6606 17.3024 36.4778 17.3859C36.295 17.4694 36.1328 17.592 36.0027 17.745C35.8727 17.898 35.7779 18.0778 35.725 18.2714C35.6722 18.4651 35.6627 18.668 35.6971 18.8658L36.0607 20.9239L34.6062 29.0653L32.212 19.8043C32.1409 19.5045 31.9706 19.2373 31.7287 19.0462C31.4867 18.855 31.1872 18.751 30.8787 18.751C30.5702 18.751 30.2707 18.855 30.0287 19.0462C29.7867 19.2373 29.6164 19.5045 29.5454 19.8043L27.1512 29.3385L25.2419 20.8639L25.5755 18.8358C25.6052 18.6402 25.5921 18.4405 25.5371 18.2505C25.4821 18.0605 25.3866 17.8846 25.257 17.735C25.1274 17.5854 24.9669 17.4657 24.7865 17.384C24.6061 17.3023 24.4101 17.2607 24.2121 17.2619H18.394C18.3436 17.259 18.2931 17.259 18.2427 17.2619ZM31.1211 40.7486L31.4237 41.6571L31.0901 42.6857L30.8777 41.6571L31.1211 40.7486Z" fill="black" fill-opacity="0.288"/>
<path d="M18.3867 18.6237L19.0762 20.9463L23.6977 41.4819L23.2429 43.8131H29.9473L29.4848 41.5661L31.0072 35.8005L32.8409 41.6417L32.1892 43.8131L39.7421 43.8286L38.8141 41.3656L42.2856 21.4799L43.6354 18.6199L37.0609 18.6237L37.442 20.9346L34.8762 35.5429L30.8802 20.1375L27.0615 35.2707L23.8499 20.8639L24.2126 18.6237H18.3867Z" fill="black" fill-opacity="0.288"/>
<path d="M18.3945 18.624L21.6711 21.0415L26.057 41.4143L23.2391 43.8134L23.6977 41.4754L19.0917 20.9543L18.3945 18.624Z" fill="url(#paint9_linear_210_5736)"/>
<path d="M26.0601 41.4143L23.2383 43.8133L29.9543 43.8056L27.3633 41.4298L26.0601 41.4143Z" fill="#792100"/>
<path d="M24.197 18.6462L21.6738 21.0482L26.0597 41.4133L27.3513 41.4249L27.0915 35.0889L23.97 20.9542L24.197 18.6462Z" fill="url(#paint10_linear_210_5736)"/>
<path d="M29.9504 43.8133L27.3672 41.4336L30.9919 27.5227L31.0074 35.7929L29.485 41.5663L29.9504 43.8133Z" fill="url(#paint11_linear_210_5736)"/>
<path d="M30.8786 20.1067L30.9998 27.4617L27.3596 41.4413L27.1211 35.1488L30.8786 20.1067Z" fill="url(#paint12_linear_210_5736)"/>
<path d="M18.3867 18.624L21.6749 21.0453L24.2126 18.6318L18.3867 18.624Z" fill="url(#paint13_linear_210_5736)"/>
<path d="M30.8711 20.1223L30.9923 27.5151L34.329 41.4434L36.4099 41.454L30.8711 20.1223Z" fill="url(#paint14_linear_210_5736)"/>
<path d="M30.9922 27.5227L31.0077 35.7774L32.8462 41.638L32.1946 43.8036L34.3483 41.452L30.9922 27.5227Z" fill="url(#paint15_linear_210_5736)"/>
<path d="M36.4007 41.4414L34.3557 41.4492L32.1797 43.8133L39.7365 43.8269L36.4007 41.4414Z" fill="#792100"/>
<path d="M42.2785 21.4481L43.6293 18.6404L39.991 20.6956L36.3867 41.4472L39.7447 43.8336L38.8148 41.3677L42.2785 21.4481Z" fill="url(#paint16_linear_210_5736)"/>
<path d="M37.4417 20.9242L37.05 18.6462L39.9949 20.6821L36.3867 41.4259L34.873 35.5392L37.4417 20.9242Z" fill="url(#paint17_linear_210_5736)"/>
<path d="M37.0469 18.6395L39.9773 20.7044L43.6456 18.627L37.0469 18.6395Z" fill="url(#paint18_linear_210_5736)"/>
<path d="M30.9994 8.87842C18.7881 8.87842 8.87891 18.7893 8.87891 31.0034C8.87891 43.2174 18.7881 53.1273 30.9994 53.1273C43.2116 53.1273 53.1199 43.2164 53.1199 31.0024C53.1199 18.7883 43.2116 8.87842 30.9994 8.87842ZM30.9082 12.6915C40.9241 12.6915 49.0298 20.8067 49.0298 30.8513C49.0298 40.8959 40.9241 49.0411 30.9082 49.0411C20.8924 49.0411 12.7567 40.8959 12.7567 30.8513C12.7577 20.8067 20.8924 12.6915 30.9082 12.6915Z" fill="black" fill-opacity="0.263"/>
<path d="M30.999 8.54541C18.6054 8.54541 8.54492 18.6084 8.54492 31.0035C8.54492 43.3977 18.6054 53.4616 30.999 53.4616C43.3926 53.4616 53.453 43.3977 53.453 31.0035C53.453 18.6084 43.3926 8.54541 30.999 8.54541ZM30.9078 13.0248C40.7414 13.0248 48.6958 20.988 48.6958 30.8515C48.6958 40.7149 40.7414 48.7091 30.9078 48.7091C21.0752 48.7091 13.0898 40.7149 13.0898 30.8515C13.0898 20.989 21.0742 13.0248 30.9078 13.0248Z" fill="black" fill-opacity="0.278"/>
<path d="M31 8C18.3116 8 8 18.3138 8 31.0024C8 43.691 18.3116 54.0048 31 54.0048C43.6893 54.0048 54 43.691 54 31.0024C54 18.3138 43.6893 8 31 8ZM30.9088 13.569C40.4477 13.569 48.1508 21.2804 48.1508 30.8513C48.1508 40.4223 40.4447 48.1637 30.9088 48.1637C21.3729 48.1637 13.6368 40.4194 13.6368 30.8513C13.6368 21.2833 21.37 13.569 30.9088 13.569Z" fill="black" fill-opacity="0.414"/>
<path d="M31.0008 9.21069C18.967 9.21069 9.21289 18.9666 9.21289 31.0025C9.21289 43.0393 18.967 52.7942 31.0008 52.7942C43.0346 52.7942 52.7887 43.0393 52.7887 31.0025C52.7887 18.9666 43.0346 9.21069 31.0008 9.21069ZM30.9096 12.3584C41.1039 12.3584 49.3637 20.6305 49.3637 30.8514C49.3637 41.0722 41.103 49.3744 30.9096 49.3744C20.7163 49.3744 12.4255 41.0722 12.4255 30.8514C12.4255 20.6305 20.7163 12.3584 30.9096 12.3584Z" fill="url(#paint19_linear_210_5736)"/>
<path d="M30.4511 9.35303C19.0263 9.35303 9.78516 18.5956 9.78516 30.0252C9.78516 41.4547 19.0272 50.6973 30.4511 50.6973C41.875 50.6973 51.118 41.4547 51.118 30.0252C51.118 18.5956 41.876 9.35303 30.4511 9.35303ZM30.36 10.2605C41.1632 10.2605 49.936 19.047 49.936 29.8731C49.936 40.6993 41.1662 49.5157 30.36 49.5157C19.5538 49.5157 10.7548 40.7022 10.7548 29.8731C10.7548 19.0441 19.5567 10.2605 30.36 10.2605Z" fill="url(#paint20_linear_210_5736)"/>
<defs>
<linearGradient id="paint0_linear_210_5736" x1="19.2762" y1="7.37793" x2="40.0676" y2="47.6356" gradientUnits="userSpaceOnUse">
<stop stop-color="#5B779E"/>
<stop offset="0.399" stop-color="#2D3B50"/>
<stop offset="1" stop-color="#0C0E14"/>
</linearGradient>
<linearGradient id="paint1_linear_210_5736" x1="26.8012" y1="16.1615" x2="33.0733" y2="29.9183" gradientUnits="userSpaceOnUse">
<stop stop-opacity="0"/>
<stop offset="1" stop-opacity="0.621"/>
</linearGradient>
<radialGradient id="paint2_radial_210_5736" cx="0" cy="0" r="1" gradientUnits="userSpaceOnUse" gradientTransform="translate(23.679 15.3726) rotate(-11.4788) scale(27.792 14.44)">
<stop stop-color="#BDD9F9"/>
<stop offset="0.065" stop-color="#BDD9F9"/>
<stop offset="1" stop-color="#1C3556" stop-opacity="0.101"/>
</radialGradient>
<linearGradient id="paint3_linear_210_5736" x1="10.2741" y1="14.7329" x2="21.1421" y2="38.2286" gradientUnits="userSpaceOnUse">
<stop stop-opacity="0"/>
<stop offset="1" stop-opacity="0.621"/>
</linearGradient>
<radialGradient id="paint4_radial_210_5736" cx="0" cy="0" r="1" gradientUnits="userSpaceOnUse" gradientTransform="translate(19.0445 21.0521) rotate(-11.4788) scale(27.7882 14.4381)">
<stop stop-color="#BDD9F9"/>
<stop offset="0.065" stop-color="#BDD9F9"/>
<stop offset="1" stop-color="#1C3556" stop-opacity="0.101"/>
</radialGradient>
<linearGradient id="paint5_linear_210_5736" x1="44.6136" y1="12.6256" x2="50.6938" y2="18.0276" gradientUnits="userSpaceOnUse">
<stop stop-color="#FDEC97"/>
<stop offset="0.353" stop-color="#FDEC97"/>
<stop offset="0.513" stop-color="#FDEC97"/>
<stop offset="0.628" stop-color="#DB990F"/>
<stop offset="1" stop-color="#DB990F"/>
</linearGradient>
<linearGradient id="paint6_linear_210_5736" x1="45.0682" y1="49.6853" x2="51.4845" y2="43.141" gradientUnits="userSpaceOnUse">
<stop stop-color="#FFDC76"/>
<stop offset="0.327" stop-color="#E4903B"/>
<stop offset="0.451" stop-color="#CA4400"/>
<stop offset="0.58" stop-color="#FDEC97"/>
<stop offset="0.704" stop-color="#DB990F"/>
<stop offset="1" stop-color="#DB990F"/>
</linearGradient>
<linearGradient id="paint7_linear_210_5736" x1="15.4745" y1="48.5104" x2="11.1941" y2="43.7963" gradientUnits="userSpaceOnUse">
<stop stop-color="#FFDC76"/>
<stop offset="0.327" stop-color="#E4903B"/>
<stop offset="0.451" stop-color="#CA4400"/>
<stop offset="0.58" stop-color="#FDEC97"/>
<stop offset="0.704" stop-color="#DB990F"/>
<stop offset="1" stop-color="#DB990F"/>
</linearGradient>
<linearGradient id="paint8_linear_210_5736" x1="11.2706" y1="18.3971" x2="17.0916" y2="12.6555" gradientUnits="userSpaceOnUse">
<stop stop-color="#CA4400"/>
<stop offset="0.353" stop-color="#CA4400"/>
<stop offset="0.513" stop-color="#FDEC97"/>
<stop offset="0.628" stop-color="#DB990F"/>
<stop offset="1" stop-color="#DB990F"/>
</linearGradient>
<linearGradient id="paint9_linear_210_5736" x1="19.3923" y1="18.7722" x2="24.6467" y2="42.2548" gradientUnits="userSpaceOnUse">
<stop stop-color="#DA940F"/>
<stop offset="0.235" stop-color="#EFD11A"/>
<stop offset="0.75" stop-color="#EFD11A"/>
<stop offset="0.908" stop-color="#EFD11A"/>
<stop offset="1" stop-color="#D3900E"/>
</linearGradient>
<linearGradient id="paint10_linear_210_5736" x1="22.6959" y1="18.7024" x2="27.3484" y2="40.8412" gradientUnits="userSpaceOnUse">
<stop stop-color="#C63000"/>
<stop offset="0.491" stop-color="#DB9000"/>
<stop offset="0.8" stop-color="#DB9000"/>
<stop offset="1" stop-color="#C43B00"/>
</linearGradient>
<linearGradient id="paint11_linear_210_5736" x1="31.8956" y1="29.176" x2="28.4794" y2="43.4035" gradientUnits="userSpaceOnUse">
<stop stop-color="#AD2F00"/>
<stop offset="1" stop-color="#CB7500"/>
</linearGradient>
<linearGradient id="paint12_linear_210_5736" x1="31.8454" y1="22.4156" x2="26.9707" y2="37.4002" gradientUnits="userSpaceOnUse">
<stop stop-color="#ECD500"/>
<stop offset="0.869" stop-color="#ECD500"/>
<stop offset="1" stop-color="#FFEF57"/>
</linearGradient>
<linearGradient id="paint13_linear_210_5736" x1="21.2434" y1="18.5059" x2="22.4406" y2="21.0842" gradientUnits="userSpaceOnUse">
<stop stop-color="#FFD511"/>
<stop offset="1" stop-color="#FDF8DC"/>
</linearGradient>
<linearGradient id="paint14_linear_210_5736" x1="30.043" y1="21.9703" x2="35.6837" y2="41.4547" gradientUnits="userSpaceOnUse">
<stop stop-color="#BD3300"/>
<stop offset="0.188" stop-color="#BD3300"/>
<stop offset="0.411" stop-color="#CB8500"/>
<stop offset="1" stop-color="#C26F00"/>
</linearGradient>
<linearGradient id="paint15_linear_210_5736" x1="29.813" y1="29.5237" x2="33.5623" y2="42.4801" gradientUnits="userSpaceOnUse">
<stop stop-color="#FFD303"/>
<stop offset="0.902" stop-color="#FFD303"/>
<stop offset="1" stop-color="#D27E00"/>
</linearGradient>
<linearGradient id="paint16_linear_210_5736" x1="42.1234" y1="18.1706" x2="37.9045" y2="43.6696" gradientUnits="userSpaceOnUse">
<stop stop-color="#A51F00"/>
<stop offset="0.288" stop-color="#C67200"/>
<stop offset="0.644" stop-color="#C67200"/>
<stop offset="1" stop-color="#C25500"/>
</linearGradient>
<linearGradient id="paint17_linear_210_5736" x1="38.8488" y1="18.7198" x2="34.6162" y2="41.2592" gradientUnits="userSpaceOnUse">
<stop stop-color="#CD7C00"/>
<stop offset="0.314" stop-color="#EED700"/>
<stop offset="1" stop-color="#EED700"/>
</linearGradient>
<linearGradient id="paint18_linear_210_5736" x1="40.2876" y1="18.5107" x2="41.3996" y2="20.7191" gradientUnits="userSpaceOnUse">
<stop stop-color="#FFD511"/>
<stop offset="1" stop-color="#FDF8DC"/>
</linearGradient>
<linearGradient id="paint19_linear_210_5736" x1="6.68783" y1="41.1119" x2="56.8513" y2="20.2043" gradientUnits="userSpaceOnUse">
<stop stop-color="#51290E"/>
<stop offset="0.346" stop-color="#D08E29"/>
<stop offset="0.417" stop-color="#E1D02D"/>
<stop offset="0.498" stop-color="#F6E57F"/>
<stop offset="0.537" stop-color="#F6E57F"/>
<stop offset="0.605" stop-color="#E1D02D"/>
<stop offset="0.687" stop-color="#D08E29"/>
<stop offset="1" stop-color="#452A15"/>
</linearGradient>
<linearGradient id="paint20_linear_210_5736" x1="43.0541" y1="47.8663" x2="17.1566" y2="11.1184" gradientUnits="userSpaceOnUse">
<stop stop-color="#FFE12B"/>
<stop offset="0.136" stop-color="#FFF7C7" stop-opacity="0"/>
<stop offset="0.819" stop-color="#FFF7C7" stop-opacity="0"/>
<stop offset="1" stop-color="#FFE12B"/>
</linearGradient>
</defs>
</svg>
