<svg xmlns="http://www.w3.org/2000/svg" width="24" height="25" viewBox="0 0 24 25" fill="none">
  <path d="M19.607 7.495C19.531 7.197 19.315 6.972 19.068 6.903C18.63 6.78 16.501 6.5 12.001 6.5C7.501 6.5 5.373 6.78 4.932 6.903C4.688 6.971 4.472 7.196 4.395 7.495C4.286 7.919 4.001 9.695 4.001 12.5C4.001 15.304 4.286 17.08 4.395 17.506C4.471 17.803 4.687 18.028 4.933 18.096C5.373 18.22 7.5 18.5 12 18.5C16.5 18.5 18.629 18.22 19.069 18.097C19.313 18.029 19.529 17.804 19.606 17.505C19.716 17.081 20 15.3 20 12.5C20 9.7 19.716 7.92 19.607 7.495ZM21.544 6.998C22.001 8.78 22.001 12.5 22.001 12.5C22.001 12.5 22.001 16.22 21.544 18.002C21.29 18.987 20.547 19.762 19.606 20.024C17.897 20.5 12 20.5 12 20.5C12 20.5 6.107 20.5 4.395 20.024C3.45 19.758 2.708 18.984 2.457 18.002C2 16.22 2 12.5 2 12.5C2 12.5 2 8.78 2.457 6.998C2.711 6.013 3.454 5.238 4.395 4.976C6.108 4.5 12.001 4.5 12.001 4.5C12.001 4.5 17.897 4.5 19.606 4.976C20.55 5.242 21.293 6.016 21.544 6.998ZM10.001 16V9L16.001 12.5L10.001 16Z" fill="#7E768C"/>
</svg>