<svg width="20" height="20" viewBox="0 0 20 20" fill="none" xmlns="http://www.w3.org/2000/svg">
<path d="M8.33332 12.5L12.6583 10L8.33332 7.50002V12.5ZM17.9667 5.97502C18.075 6.36669 18.15 6.89169 18.2 7.55835C18.2583 8.22502 18.2833 8.80002 18.2833 9.30002L18.3333 10C18.3333 11.825 18.2 13.1667 17.9667 14.025C17.7583 14.775 17.275 15.2584 16.525 15.4667C16.1333 15.575 15.4167 15.65 14.3167 15.7C13.2333 15.7584 12.2417 15.7834 11.325 15.7834L9.99999 15.8334C6.50832 15.8334 4.33332 15.7 3.47499 15.4667C2.72499 15.2584 2.24166 14.775 2.03332 14.025C1.92499 13.6334 1.84999 13.1084 1.79999 12.4417C1.74166 11.775 1.71666 11.2 1.71666 10.7L1.66666 10C1.66666 8.17502 1.79999 6.83335 2.03332 5.97502C2.24166 5.22502 2.72499 4.74169 3.47499 4.53335C3.86666 4.42502 4.58332 4.35002 5.68332 4.30002C6.76666 4.24169 7.75832 4.21669 8.67499 4.21669L9.99999 4.16669C13.4917 4.16669 15.6667 4.30002 16.525 4.53335C17.275 4.74169 17.7583 5.22502 17.9667 5.97502Z" fill="#768192"/>
</svg>
