
<svg width="20" height="20" viewBox="0 0 20 20" fill="none" xmlns="http://www.w3.org/2000/svg">
<path d="M8.61683 17C8.90466 16.2471 9.14482 15.4744 9.3357 14.6872C8.75552 14.5611 8.21948 14.2657 7.78721 13.8339C7.35495 13.402 7.0434 12.8506 6.88723 12.2411C6.73106 11.6315 6.7364 10.9877 6.90263 10.3812C7.06887 9.77464 7.3895 9.22924 7.82884 8.80561C6.56219 7.40575 4.37275 4.56363 4.76674 2C4.76674 2 3.61759 3.82958 3.60204 6.64589C3.60204 6.64589 4.27079 7.95906 4.29326 9.23903C3.37221 8.36297 2.3924 7.10697 2.36994 5.73478C2.36994 5.73478 2.32674 5.84913 2.26971 6.05201L2.13665 6.63667C2.06152 7.0581 2.02162 7.48582 2.01742 7.91479C1.99419 8.36754 1.99419 8.82132 2.01742 9.27407C2.07296 10.5063 2.35601 11.7148 2.85034 12.83C2.85034 12.83 3.08362 12.8816 3.45343 12.9867C4.4194 13.2486 5.76383 13.7245 6.83003 14.4825L6.92853 14.5544C7.75972 15.1501 8.41811 15.9137 8.52525 16.8672" fill="#F4C874"/>
<path d="M12.1611 11.3398C12.1614 10.8783 12.0335 10.427 11.7935 10.0431C11.5535 9.6592 11.2122 9.35988 10.8128 9.18301C10.4134 9.00614 9.9738 8.95967 9.54965 9.04949C9.1255 9.1393 8.73583 9.36136 8.42994 9.68758C8.12405 10.0138 7.91569 10.4295 7.8312 10.8821C7.74671 11.3348 7.78989 11.804 7.95529 12.2304C8.12069 12.6568 8.40089 13.0213 8.76041 13.2777C9.11993 13.5342 9.54262 13.6711 9.97504 13.6711C10.5544 13.6706 11.1099 13.4249 11.5197 12.9878C11.9295 12.5508 12.1602 11.9581 12.1611 11.3398Z" fill="#3FBFDD"/>
<path d="M11.3868 17C11.099 16.2471 10.8588 15.4744 10.668 14.6872C11.2481 14.5611 11.7841 14.2657 12.2164 13.8339C12.6487 13.402 12.9602 12.8506 13.1164 12.2411C13.2726 11.6315 13.2672 10.9877 13.101 10.3812C12.9347 9.77464 12.6141 9.22924 12.1748 8.80561C13.4414 7.40575 15.6309 4.56363 15.2369 2C15.2369 2 16.386 3.82958 16.3999 6.64589C16.3999 6.64589 15.7328 7.95906 15.7086 9.23903C16.6297 8.36297 17.6095 7.10697 17.6319 5.73478C17.6319 5.73478 17.6752 5.84913 17.7322 6.05201L17.8635 6.63298C17.9402 7.05421 17.9807 7.48202 17.9845 7.9111C18.0077 8.36386 18.0077 8.81763 17.9845 9.27038C17.9306 10.5023 17.6493 11.7107 17.1567 12.8263C17.1567 12.8263 16.9217 12.8779 16.5536 12.983C15.5859 13.2449 14.2432 13.7208 13.177 14.4788L13.0768 14.5507C12.2456 15.1464 11.5872 15.91 11.4801 16.8635" fill="#F4C874"/>
</svg>
