<svg width="24" height="24" viewBox="0 0 24 24" fill="none" xmlns="http://www.w3.org/2000/svg">
<path d="M15.75 10.5C15.75 11.5383 15.4421 12.5534 14.8652 13.4167C14.2884 14.2801 13.4684 14.953 12.5091 15.3504C11.5498 15.7477 10.4942 15.8517 9.47581 15.6491C8.45741 15.4465 7.52194 14.9465 6.78772 14.2123C6.05349 13.4781 5.55348 12.5426 5.35091 11.5242C5.14833 10.5058 5.2523 9.45021 5.64966 8.4909C6.04702 7.53159 6.71993 6.71165 7.58329 6.13477C8.44664 5.55789 9.46168 5.24999 10.5 5.24999C11.8924 5.24999 13.2278 5.80311 14.2123 6.78768C15.1969 7.77224 15.75 9.1076 15.75 10.5ZM21.5307 21.5306C21.461 21.6003 21.3783 21.6557 21.2872 21.6934C21.1962 21.7311 21.0986 21.7506 21 21.7506C20.9015 21.7506 20.8039 21.7311 20.7128 21.6934C20.6218 21.6557 20.5391 21.6003 20.4694 21.5306L15.7763 16.8365C14.1442 18.1943 12.0515 18.8707 9.93346 18.7249C7.81543 18.5791 5.83514 17.6224 4.40449 16.0538C2.97384 14.4852 2.20297 12.4254 2.25222 10.3029C2.30148 8.18048 3.16707 6.1587 4.66895 4.65815C6.17083 3.1576 8.19337 2.29379 10.3159 2.24641C12.4384 2.19903 14.4975 2.97172 16.0648 4.40376C17.6322 5.83579 18.5871 7.81693 18.731 9.93509C18.8749 12.0532 18.1968 14.1453 16.8375 15.7762L21.5307 20.4694C21.6004 20.539 21.6557 20.6217 21.6934 20.7128C21.7312 20.8038 21.7506 20.9014 21.7506 21C21.7506 21.0985 21.7312 21.1961 21.6934 21.2872C21.6557 21.3782 21.6004 21.461 21.5307 21.5306ZM10.5 17.25C11.8351 17.25 13.1401 16.8541 14.2501 16.1124C15.3602 15.3707 16.2253 14.3165 16.7362 13.0831C17.2471 11.8497 17.3808 10.4925 17.1203 9.18313C16.8599 7.87375 16.217 6.67102 15.273 5.72702C14.329 4.78301 13.1263 4.14014 11.8169 3.87969C10.5075 3.61924 9.15032 3.75291 7.91692 4.2638C6.68351 4.77469 5.62931 5.63985 4.88761 6.74989C4.14591 7.85992 3.75003 9.16496 3.75003 10.5C3.75201 12.2896 4.46381 14.0053 5.72925 15.2708C6.99469 16.5362 8.71043 17.248 10.5 17.25Z" fill="white"/>
<circle cx="10.4531" cy="10.4531" r="5.39062" fill="#31313A"/>
</svg>
