
<svg width="61" height="61" viewBox="0 0 61 61" fill="none" xmlns="http://www.w3.org/2000/svg">
<path fill-rule="evenodd" clip-rule="evenodd" d="M2.13056 50.3234C0.463689 48.6565 0.463688 45.954 2.13056 44.2871L11.4904 34.9272C11.9732 34.4445 12.5646 34.0846 13.2152 33.8777L27.9699 29.1862L23.2597 14.3729C23.2467 14.332 23.224 14.2948 23.1937 14.2645L13.8338 4.90461C13.729 4.79983 13.5592 4.79983 13.4544 4.90461L4.95686 13.4021C4.85209 13.5069 4.85209 13.6768 4.95686 13.7816L14.7072 23.5319C15.4882 24.3129 15.4882 25.5792 14.7072 26.3603C13.9261 27.1413 12.6598 27.1413 11.8787 26.3603L2.12844 16.61C0.461562 14.9431 0.461563 12.2406 2.12844 10.5737L10.626 2.07618C12.2928 0.409309 14.9954 0.409306 16.6622 2.07618L26.0221 11.4361C26.5049 11.9188 26.8647 12.5103 27.0716 13.1608L31.7818 27.9741L46.488 23.298C46.5289 23.285 46.5661 23.2624 46.5964 23.232L56.045 13.7834C56.1498 13.6787 56.1498 13.5088 56.045 13.404L47.5475 4.90648C47.4427 4.8017 47.2728 4.8017 47.168 4.90648L37.329 14.7455C36.548 15.5265 35.2817 15.5265 34.5006 14.7455C33.7196 13.9644 33.7196 12.6981 34.5006 11.9171L44.3396 2.07805C46.0065 0.411179 48.709 0.411181 50.3759 2.07805L58.8734 10.5756C60.5403 12.2425 60.5403 14.945 58.8734 16.6119L49.4248 26.0605C48.9421 26.5432 48.3507 26.9031 47.7001 27.1099L32.9939 31.7861L37.6514 46.4336C37.6644 46.4745 37.687 46.5117 37.7173 46.542L47.1659 55.9906C47.2707 56.0954 47.4406 56.0954 47.5453 55.9906L56.0429 47.4931C56.1477 47.3883 56.1477 47.2184 56.0429 47.1137L46.2039 37.2747C45.4228 36.4936 45.4228 35.2273 46.2039 34.4462C46.9849 33.6652 48.2512 33.6652 49.0323 34.4462L58.8713 44.2852C60.5382 45.9521 60.5382 48.6547 58.8713 50.3215L50.3738 58.8191C48.7069 60.4859 46.0044 60.4859 44.3375 58.819L34.8889 49.3705C34.4062 48.8877 34.0463 48.2963 33.8394 47.6457L29.1819 32.9981L14.4273 37.6897C14.3864 37.7027 14.3492 37.7253 14.3189 37.7557L4.95899 47.1155C4.85421 47.2203 4.85421 47.3902 4.95899 47.495L13.4565 55.9925C13.5613 56.0973 13.7312 56.0973 13.836 55.9925L23.5863 46.2422C24.3673 45.4612 25.6336 45.4611 26.4147 46.2422C27.1957 47.0232 27.1957 48.2896 26.4147 49.0706L16.6644 58.8209C14.9975 60.4878 12.295 60.4878 10.6281 58.8209L2.13056 50.3234Z" fill="url(#paint0_linear_794_621)"/>
<defs>
<linearGradient id="paint0_linear_794_621" x1="78.7453" y1="30.9299" x2="-17.7453" y2="30.9299" gradientUnits="userSpaceOnUse">
<stop stop-color="#5E00FF"/>
<stop offset="1" stop-color="#CB00FF"/>
</linearGradient>
</defs>
</svg>
